<?xml version="1.0" encoding="utf-8"?>
<!-- Generator: Adobe Illustrator 19.0.0, SVG Export Plug-In . SVG Version: 6.00 Build 0)  -->
<svg version="1.1" id="图层_2" xmlns="http://www.w3.org/2000/svg" xmlns:xlink="http://www.w3.org/1999/xlink" x="0px" y="0px"
	 viewBox="0 0 841.9 841.9" style="enable-background:new 0 0 841.9 841.9;" xml:space="preserve">
<style type="text/css">
	.st0{display:none;fill:#FFFFCC;}
	.st1{clip-path:url(#SVGID_6_);fill:#CC3300;}
	.st2{fill:url(#SVGID_7_);}
	.st3{fill:#CC3300;}
	.st4{fill:url(#SVGID_8_);}
	.st5{opacity:0.6;fill:#FFFFFF;}
</style>
<circle class="st0" cx="420.9" cy="420.9" r="420.9"/>
<g id="图层_1">
	<g>
		<g>
			<defs>
				<rect id="SVGID_1_" x="20.1" y="-55.5" width="744.1" height="858.2"/>
			</defs>
			<clipPath id="SVGID_2_">
				<use xlink:href="#SVGID_1_"  style="overflow:visible;"/>
			</clipPath>
		</g>
		<g>
			<defs>
				<rect id="SVGID_3_" x="20.1" y="-55.5" width="744.1" height="858.2"/>
			</defs>
			<clipPath id="SVGID_4_">
				<use xlink:href="#SVGID_3_"  style="overflow:visible;"/>
			</clipPath>
		</g>
		<g>
			<defs>
				<rect id="SVGID_5_" x="20.1" y="-55.5" width="744.1" height="858.2"/>
			</defs>
			<clipPath id="SVGID_6_">
				<use xlink:href="#SVGID_5_"  style="overflow:visible;"/>
			</clipPath>
			<path class="st1" d="M403.6,302.6l-15.9,5.7c-25.9,9.2-56-2.9-66.8-26.9l-47.9-105.8c-11.3-24.9,1.4-53,28.3-62.6l15.9-5.7
				c25-8.9,53.9,2.7,64.4,26l49.3,108.9C441.7,266.2,429.5,293.4,403.6,302.6L403.6,302.6z M403.6,302.6"/>
			<path class="st1" d="M267.6,67c0,0,50,12.2,116.6-19.2c0,0,13.1-5,0.3,22c0,0-6.6,3.3-46,16.9c0,0-11.3,2.3-12.6,13l-3.9,30.6
				c0,0-3.7,11.5,5.4,22.2l-40.6-5.5c0,0,10.5-6.3,12.2-20l3-22.8c0,0,1.7-13.7-11-11.7c0,0-12.8,2-21.9,0.1c0,0-3.4-10.2-7.4-15.7
				C261.6,76.7,256.3,69.4,267.6,67L267.6,67z M267.6,67"/>
		</g>
		
			<radialGradient id="SVGID_7_" cx="410.8989" cy="342.1065" r="144.5083" gradientTransform="matrix(1.1449 0 0 1.0457 -89.6941 -74.3996)" gradientUnits="userSpaceOnUse">
			<stop  offset="0" style="stop-color:#FFFFFF"/>
			<stop  offset="0.513" style="stop-color:#FFFF11"/>
			<stop  offset="1" style="stop-color:#FFAA24"/>
		</radialGradient>
		<path class="st2" d="M366.1,431.6c-56.7,0-106-24.6-132.1-65.7c-20.9-33-27-74.8-16.9-114.6c10.6-41.8,37.6-76,76-96.3
			c24.8-13,54-20,84.4-20c63.5,0,125.2,29.9,153.3,74.3c42.1,66.7,9.9,156-72,199.1C430.1,423.6,398,431.6,366.1,431.6L366.1,431.6z
			 M366.1,431.6"/>
		<path class="st3" d="M377.4,145.4c59.6,0,117.2,27.8,143.4,69.2c39,61.6,8.6,144.6-67.8,184.8c-26.9,14.2-57.1,21.7-87,21.7
			c-52.6,0-98.3-22.7-122.2-60.6c-19.4-30.8-25.2-69.8-15.7-107.1c9.9-39,35-70.8,70.6-89.6C321.8,151.9,349,145.4,377.4,145.4
			 M377.4,124.5c-31,0-62.3,6.7-90.1,21.4C199.9,192,178.6,299.3,224,371.1c29,45.9,83.6,71,142,71c32.9,0,66.9-7.9,98.4-24.5
			C552,371.5,586,275.9,540.7,204.1C509.7,155.2,443.9,124.5,377.4,124.5L377.4,124.5z M377.4,124.5"/>
		
			<radialGradient id="SVGID_8_" cx="511.2314" cy="575.6588" r="223.1544" gradientTransform="matrix(1.1449 0 0 1.0457 -89.6941 -74.3996)" gradientUnits="userSpaceOnUse">
			<stop  offset="0" style="stop-color:#FFFFFF"/>
			<stop  offset="0.6437" style="stop-color:#FFFF00"/>
			<stop  offset="1" style="stop-color:#FFAA24"/>
		</radialGradient>
		<path class="st4" d="M495.6,759.5c-68.7,0-133.2-24.2-181.8-68c-48.5-43.8-75.3-102-75.3-163.9c0-61.9,26.7-120.1,75.3-163.9
			c48.5-43.8,113.1-68,181.8-68c68.7,0,133.2,24.2,181.8,68c48.5,43.8,75.3,102,75.3,163.9c0,61.9-26.7,120.1-75.3,163.9
			C628.8,735.3,564.3,759.5,495.6,759.5L495.6,759.5z M495.6,759.5"/>
		<path class="st3" d="M495.6,306.2c33.1,0,65.4,5.9,95.7,17.4c29.2,11.2,55.5,27.2,78.1,47.5c22.5,20.3,40.2,44,52.6,70.4
			c12.7,27.3,19.2,56.2,19.2,86.1c0,29.9-6.5,58.9-19.2,86.1c-12.4,26.3-30.1,49.9-52.7,70.3c-22.5,20.3-48.8,36.4-78.1,47.5
			C561,743.2,528.8,749,495.6,749s-65.4-5.9-95.7-17.4c-29.2-11.2-55.5-27.2-78.1-47.5c-22.5-20.3-40.2-44-52.6-70.4
			c-12.7-27.3-19.2-56.2-19.2-86.1c0-29.9,6.5-58.9,19.2-86.1c12.4-26.3,30-50,52.6-70.4c22.5-20.3,48.8-36.4,78.1-47.5
			C430.2,312,462.4,306.2,495.6,306.2 M495.6,285.3c-148.3,0-268.5,108.5-268.5,242.4c0,133.9,120.2,242.3,268.5,242.3
			c148.3,0,268.5-108.5,268.5-242.4C764.1,393.7,643.9,285.3,495.6,285.3L495.6,285.3z M495.6,285.3"/>
		<path class="st3" d="M200.1,480c-31.1-0.1-51.8-32.2-53.6-35.1c-14.4-22-16.6-40.2-6.4-54c23.9-32.7,108.5-22.3,118.1-21
			c4.2,0.6,7.4,3.3,8.7,6.7c3.3-4.4,7.1-8.7,11.1-12.7c17.2-17.1,46-41.6,84.9-61.2c47.1-23.7,97-34.3,148.3-31.3
			c2.4-3.7,7.3-5.6,12.2-4.3c7.3,1.9,19.7,5.1,17.6,15.3c-1.8,8.8-12.7,9.1-16.7,9.2c-4.2,0.1-8.6-0.1-11.2-0.4
			c-0.9-0.1-1.8-0.2-2.7-0.2c-110.4-6.6-188.2,58.1-216.5,86.3c-8.7,8.7-15.5,18.5-20.1,29.3c-20.6,47.9-43.7,71.9-70.6,73.6
			L200.1,480z M218.6,386.7c-26,0-52.6,3.6-60.7,14.9c-6.4,8.8,0.3,22.9,7.1,33.2c0.1,0.1,0.1,0.2,0.2,0.3
			c4.5,7.4,19.8,26.2,36.4,25.2c17-1.1,35.5-22.8,52-61.1c1.5-3.4,3.1-6.9,5-10.1c-1.1,0.2-2.4,0.2-3.6,0.1
			C244.6,387.8,231.6,386.8,218.6,386.7L218.6,386.7z M218.6,386.7"/>
		<path class="st3" d="M166.2,570.6c-5.1-1-9.1-5.4-9.1-10.4c0.8-74.5,91.9-130.9,95.7-133.3c4.8-2.9,11.4-1.5,14.8,3.1
			c3.4,4.6,2.4,10.7-2.3,13.6c-0.8,0.5-86.3,53.6-87,118.2c-0.1,5.4-4.9,9.5-10.8,9C167.2,570.8,166.6,570.7,166.2,570.6
			L166.2,570.6z M166.2,570.6"/>
		<path class="st3" d="M123.5,552c-3.7,22.3,13.1,44.4,37.5,49.4c24.4,5,47.2-9.1,50.9-31.4c3.7-22.3-13.1-44.4-37.5-49.4
			C150,515.6,127.2,529.7,123.5,552L123.5,552z M123.5,552"/>
		<path class="st3" d="M130.4,668.6c-3.5-1.2-6.3-4-7.4-7.6c-1.6-5.4,1.6-10.6,7.2-11.5c8.3-1.4,13.7-4.6,16.4-9.8
			c5.9-11.1-1-28.1-1.4-29.2c-21-46,7.2-75.4,8.4-76.6c3.8-3.7,10.4-3.7,14.9,0.4c4.4,3.9,5,10.3,1.3,14.1c-1,1-20.8,22.5-5.4,56.1
			l0.1,0.2c0.5,1,11.3,26.4,1.1,45.6c-5.5,10.3-15.4,16.7-29.6,19C134.2,669.4,132.2,669.2,130.4,668.6L130.4,668.6z M130.4,668.6"
			/>
		<path class="st3" d="M205.3,716.7c-1.5-0.5-3-1.4-4.2-2.5c-4.4-4-4.9-10.4-1.1-14.1c23.1-22.8,33-44,29.5-63.2
			c-3.8-19.9-21.4-31.3-21.7-31.5c-0.1,0-0.2-0.1-0.2-0.2c-39.7-26.1-34-65.3-33.8-67c0.9-5.3,6.2-8.5,12-7.1
			c5.7,1.4,9.8,6.8,8.9,12.1c-0.2,1.3-3.6,28.1,23.5,45.9c2.6,1.6,26.7,17.8,32.1,46.4c4.8,25.6-6.8,52.2-34.3,79.2
			C213.3,717.5,209.1,718.1,205.3,716.7L205.3,716.7z M205.3,716.7"/>
		<path class="st3" d="M158.3,708.3c-2-0.7-3.9-2-5.4-3.8c-3.8-4.6-3.1-10.8,1.3-13.8c48.9-33.4,30.2-59.9,27.9-62.9
			c-0.5-0.6-1-1.2-1.4-1.9c-29.1-43.6-20.6-83-20.2-84.7c1.2-5.3,6.8-8,12.5-6.3c5.6,1.7,9.3,7.4,8.2,12.6
			c-0.2,0.6-6.8,33.5,17,69.2c0.2,0.1,0.2,0.3,0.3,0.5c3.7,4.6,33.5,46.3-30.8,90.2C165,709.1,161.5,709.4,158.3,708.3L158.3,708.3z
			 M158.3,708.3"/>
		<path class="st5" d="M683.6,444.6c30,59.8,8.7,127.5-24.6,143.3c-33.4,15.7-15.9-54.1-44.8-107.8c-32-59.6-109.4-90.3-76-106
			C571.7,358.3,653.2,384.2,683.6,444.6L683.6,444.6z M456.2,189.8c19.1,25.1,15.5,57.6,1.6,67.3c-13.8,9.7-12.2-23.5-30.2-45.9
			c-20.1-24.8-58.1-33-44.3-42.7C397.2,158.8,436.9,164.5,456.2,189.8L456.2,189.8z M449.2,167.6"/>
	</g>
</g>
</svg>
