<?xml version="1.0" encoding="utf-8"?>
<!-- Generator: Adobe Illustrator 19.0.0, SVG Export Plug-In . SVG Version: 6.00 Build 0)  -->
<svg version="1.1" id="图层_1" xmlns="http://www.w3.org/2000/svg" xmlns:xlink="http://www.w3.org/1999/xlink" x="0px" y="0px"
	 viewBox="0 0 215 205" style="enable-background:new 0 0 215 205;" xml:space="preserve">
<style type="text/css">
	.st0{fill:#FCFBF9;}
	.st1{fill:#683327;}
	.st2{fill:#7B3221;}
	.st3{fill:#F54534;}
	.st4{fill:#F8F8F5;}
	.st5{fill:#DD5040;}
	.st6{fill:#64534A;}
	.st7{fill:#F7EDE5;}
	.st8{fill:#59463A;}
	.st9{fill:#E24935;}
	.st10{fill:#893327;}
	.st11{fill:#60392B;}
	.st12{fill:#673633;}
	.st13{fill:#5D4039;}
	.st14{fill:#633B2D;}
	.st15{fill:#5C3E21;}
	.st16{fill:#653C35;}
	.st17{fill:#862D1D;}
	.st18{fill:#694230;}
	.st19{fill:#6A4527;}
	.st20{fill:#952D17;}
	.st21{fill:#90362A;}
	.st22{fill:#55461F;}
	.st23{fill:#843928;}
	.st24{fill:#90AE71;}
	.st25{fill:#514A22;}
	.st26{fill:#554B20;}
	.st27{fill:#784032;}
	.st28{fill:#6B4A44;}
	.st29{fill:#50633D;}
	.st30{fill:#F4F6F0;}
	.st31{fill:#594331;}
	.st32{fill:#E9F0E5;}
	.st33{fill:#F3EFE5;}
	.st34{fill:#FCFCF9;}
	.st35{fill:#593A33;}
	.st36{fill:#F3F5F2;}
	.st37{fill:#F3F6F2;}
	.st38{fill:#070707;}
	.st39{fill:#1B0506;}
	.st40{fill:#EDDED6;}
	.st41{fill:#2F0A0B;}
	.st42{fill:#F6F8F6;}
	.st43{fill:#F6F4EF;}
	.st44{fill:#F14937;}
	.st45{fill:#D85047;}
	.st46{fill:#EDDCD9;}
	.st47{fill:#DEBBA8;}
	.st48{fill:#E6D7CC;}
	.st49{fill:#ECDACB;}
	.st50{fill:#97B584;}
	.st51{fill:#94B581;}
	.st52{fill:#F3EFE8;}
	.st53{fill:#AEA47D;}
	.st54{fill:#E8DED0;}
	.st55{fill:#010103;}
	.st56{fill:#F6F6F0;}
	.st57{fill:#F74537;}
	.st58{fill:#7FBD70;}
	.st59{fill:#91A975;}
	.st60{fill:#9CAD78;}
	.st61{fill:#17080A;}
	.st62{fill:#8F2E2F;}
	.st63{fill:#210708;}
	.st64{fill:#6B3423;}
	.st65{fill:#93A66D;}
	.st66{fill:#99A26B;}
	.st67{fill:#94AB72;}
	.st68{fill:#BA8C6B;}
	.st69{fill:#240708;}
	.st70{fill:#EDEBD2;}
	.st71{fill:#AE9A7E;}
	.st72{fill:#EAB29F;}
	.st73{fill:#F4CF77;}
	.st74{fill:#F34739;}
	.st75{fill:#DC4E3C;}
	.st76{fill:#733F1C;}
	.st77{fill:#96AF71;}
	.st78{fill:#6DC775;}
	.st79{fill:#70C172;}
	.st80{fill:#95AC6E;}
	.st81{fill:#70C470;}
	.st82{fill:#F5F1E9;}
	.st83{fill:#EEB0A1;}
	.st84{fill:#713729;}
	.st85{fill:#733627;}
	.st86{fill:#673D33;}
	.st87{fill:#5C453C;}
	.st88{fill:#693B2A;}
	.st89{fill:#634540;}
	.st90{fill:#68C777;}
	.st91{fill:#EA8469;}
</style>
<g>
	<path class="st0" d="M157,201c-23,0-46,0-69,0c-3-3.3-2.5-7.2-2.1-11.1c0.3-1.3,0.7-2.5,1.1-3.7c2.6-5.9,3.1-5.8,7.8-1.8
		c3.4,2.9,4.8,6.5,6.3,10.8c0.5-6,4.1-7.1,13.5-4.7c0.6-1.3,0-2.6,0.2-3.9c1.2-4.7,0.7-9.8,3.6-14.1c3.4-0.9,6.5,1.7,10.1,0.4
		c1.5-0.5,2.2,1.5,2.5,3.1c0.3,1.9-0.1,3.9,0.7,5.8c0.8,1.6,2.4,1.4,3.8,1.6c2,1.3,4,2.7,5.6,4.4c1.9,1.9,3,0.9,4.5-0.2
		c0.9-0.7,1.9-1.2,2.8-1.8c4-2.7,3.8,2.6,6.1,3.2c1,2.2,2,4.5,2.9,6.8C158,197.6,158.4,199.4,157,201z"/>
	<path class="st1" d="M87.1,189.3c0.3,3.9,0.6,7.8,0.9,11.7c-2.7,0-5.3,0-8,0c-3.5-3-3.7-7.2-4.3-11.3c-0.2-1.5,0.4-3.2-0.8-4.3
		c-6.4-5.7-4.3-12.2-2.1-18.8c0.4-1.1,1-2.1,0.8-3.3c-2.6-1.7-5.5-0.9-8.2-0.8c-5.3,0.3-9.9-0.3-12.8-5.4
		c-4.3-3.4-7.9-7.4-10.6-12.2c-1.2-3-0.3-4,2.8-3c5.3,6.4,10.6,12.7,19.1,15c4.6,1.3,9,1.8,13.6-0.1c2-0.4,4-1.2,6.1-0.9
		c-1.7-0.3-3.4-0.5-5-1.2c-0.4-0.2-0.8-0.5-1.1-0.9c-0.5-0.9-0.4-1.9,0-2.8c0.6-1,1.5-1.9,2.4-2.8c0.8-0.7,1.7-1,2.8-0.7
		c6.9,5.4,15.1,5.9,23.3,6c0.8,0,1.6,0,2.4,0c3.6-0.1,7.2,0.5,10.8-0.6c4.6-0.3,9.2-1.5,13.8-1.4c1.9,0.4,4.4,0,4.4,3.1
		c-1.2,2.2-3.4,2.4-5.5,2.7c-6.2,1-12.3,2.1-18.7,2.1c-2.5,0-5.4-0.5-7.2,2.2c-1,1.9-2.3,2.7-4.3,1.3c-2.1-4.1-6.1-4-9.9-4.4
		c-2,0.9-4.3,0.6-6.2,1.8c-5.4,2.3-7.9,6.8-9.2,12.2c-0.8,3.3-0.7,6.3,2.5,8.3c2.1,1.4,2.2,3.5,2.3,5.7c0.1,2.5,0,4.9,1.3,8
		c0.3-5.1-0.3-9.6,0.9-13.9c0.5-1.6,0.1-3.9,2.7-4.1c2.5,1.2,2.2,3.5,2,5.5C88,184.5,87.7,186.9,87.1,189.3z"/>
	<path class="st2" d="M157,201c-0.2-1.7-0.5-3.4-0.7-5.1c-0.3-2.1,1.6-3.4,1.7-5.4c0.9-1,2.1-2,1.9-3.4c-1.3-10.7,1.5-22.6-9-30.7
		c-0.4-0.3-0.6-0.8-0.8-1.3c-0.2-0.7-0.3-1.5-0.3-2.2c0.2-1.4,0.7-2.5,2.1-3c4.3,2,8.1-0.6,12-1.5c1.4-0.3,2.7-1.2,4.1-1.7
		c1.5-0.5,2.7-2.7,4.3-1.3c1.3,1.1,0.8,3.1,0.3,4.7c-1.2,2.6,1.6,4.2,1.5,6.5c0.1,3.9-1.2,7.7-1,11.6c-0.4,2.3-1.2,4.6,0.2,6.8
		c0.2,0.7,0.1,1.4-0.5,2c-1,0.9-3.1,0.5-3.2,2.6c-0.6,7.2-2.8,14.2-2.7,21.5c-1,0-2,0-3,0c-2.1-2.7-0.1-5.4-0.1-7.9
		c-4.2,1.1-2,5.5-3.9,7.9C159,201,158,201,157,201z"/>
	<path class="st3" d="M77,201c-1.3,0-2.7,0-4,0c-4.1-1.9-4.3-6.7-7.2-9.5c-4-6.9-6.9-14.3-10.1-21.6c-0.5-1.1-0.5-2.3-0.1-3.4
		c1-2.1,2.8-2.7,4.9-2.8c2.3-0.1,4.6-0.1,6.9,0c6.1,0.1,6.1,0.4,3.8,6c-2,4.9-1.9,10.6,2.3,15C77.3,188.7,78.4,195,77,201z"/>
	<path class="st4" d="M59,201c-3,0-6,0-9,0c-4-2.4-7.9-4.9-10.7-8.8c-0.3-1.8,0.1-3.7,0-5.6c1.6-3,3.6-5.6,6.4-7.7
		c7.5-4,7.5-4,11.2,3.8c0.6,1.3,1.6,2.5,1.7,4.1c-2.4,3.9-2.6,7.6,0.5,11.3C59.7,199,59.8,200.1,59,201z"/>
	<path class="st5" d="M77,201c0.8-4.8-2.5-8.9-2.4-13.5c0-0.6-0.5-1.5-0.9-1.7c-7.3-3.1-5.1-9.4-5-14.9c0-2.3,1.8-3.7,3.9-5
		c-5.7-0.3-11.3-2.8-16.7,1.1c-2.6,0-3-1.7-2.6-3.7c0.3-1.6,1.4-2.1,3-1.8c6.5,1.1,13.2,0.1,19.7,0.6c-1.5,4.6-4.2,8.9-4,14.1
		c0.1,3,0.3,6,3.4,7.6c1.2,0.6,1.6,1.6,1.5,2.9c-0.4,5.1,1.4,9.7,3,14.3C79,201,78,201,77,201z"/>
	<path class="st6" d="M40,192c3,3.4,7.5,5.1,10,9c-1.3,0-2.7,0-4,0c-2.8-2.6-5.4-5.3-8.4-7.7c-2.7-2.2-2.6-4.2-0.5-6.7
		c4.3-5.3,9-10.1,13.8-14.9c1.2-1.2,2.9-2.3,2.1-4.5c2.9,0.4,2,2.8,2.3,4.5c-2.5,3.4-6.2,5.6-9.3,8.4c-2.1,2.3-4.1,4.6-6.2,6.8
		C39.6,188.6,38.6,190.3,40,192z"/>
	<path class="st7" d="M69,201c-2,0-4,0-6,0c-1.5-1.3-2.9-2.6-4-4.3c-3-4.5-2.4-6.5,2.6-9.1c2.4,0.7,2.8,3.2,4.2,4.9
		C67.1,195.3,69.7,197.5,69,201z"/>
	<path class="st8" d="M61.9,188c-4.3,2.1-5.1,4.8-1.7,8.6c1.2,1.3,2.5,2.6,2.7,4.5c-1.3,0-2.7,0-4,0c-0.5-1-0.7-2.2-1.4-3
		c-3.8-3.9-3.2-7.4,0.5-10.9c0.5-1.3,0.6-2.9,2.3-3.4C62.3,184.6,62.6,186.1,61.9,188z"/>
	<path class="st9" d="M160,201c-0.4-5.8-0.4-5.8,4.7-10.2c1.2,3.5-0.9,6.8-0.7,10.2C162.7,201,161.3,201,160,201z"/>
	<path class="st10" d="M69,201c-1.4-2.6-2.8-5.3-4.2-7.9c0.4-1,1.3-1.3,2.2-1.8c2.9,2.7,3.5,6.8,6,9.7C71.7,201,70.3,201,69,201z"/>
	<path class="st11" d="M152,149.9c-0.4,1.1-0.8,2.3-1.2,3.4c-4.7,0.7-0.1,3-0.7,4.4c2.9,9.4,5.2,19.1,8.2,28.5
		c0.5,1.6,1,3.2-0.3,4.7c0.9,2.2-1.4,3.2-1.7,5c-1-2.2-2.8-4.2-2.4-6.9c-2.3-2.1-2.1-5.1-3.4-8.1c-0.4,2.3-0.6,4.3-1.4,6.1
		c-1,0.3-2.1,0.7-3.1,1c-2.7,0.8-4.2-1.4-6.1-2.4c-1.5-0.8-2.7-2.7-4.8-1.6c-1.8,1-3.3,1-4.2-1.1c-0.4-0.9-0.3-2-0.3-2.9
		c-0.1-9.4-3.1-11.2-11.8-7.2c-0.9,4.7-1.9,9.3-2.8,14c-1,2.4-2.9,2.1-4.5,1.1c-2.4-1.4-4.3-1.8-6.8,0.1c-2.2,1.7-4.1,0.6-5.2-1.8
		c-1-2.1-1.5-4.4-1.7-6.7c-0.2-1.9-0.5-3.5-2.5-4.5c-2.6-1.3-2.6-3.5-1-5.3c2.3-2.7,3-7.2,7.6-7.7c1.7,1.7,2.7,1.1,3.1-1.1
		c2.7-0.8,4.3,1.3,6.3,2.3c8.9,4.6,20.3,3,25.6-3.6c1.3-1.6,2.6-3.2,0.1-4.9c-0.6-2.6-2.8-1.4-4.4-1.9c0.5-2,2.4-2.2,3.9-2.5
		c5.9-1.3,11.4-3.5,16.8-6.1c2.7-1,5-2.6,7.3-4.3c1.3-1,2.6-2.1,4.5-1.6c1,0.5,1.7,1.2,0.8,2.4C161.9,144.7,156.1,146,152,149.9z"/>
	<path class="st12" d="M112,43c6.1,3.1,13,3.5,19.3,5.9c14.1,5.4,26.6,13,35.4,25.7c1.7,2.5,1.9,6.1,5.4,7.3c-0.1,3-1.7,4-4.5,3.4
		c-3.6-4.6-9.1-4.7-14.1-5.1c-8.9-0.7-17.8-2.5-26.7-0.8c-7-0.1-13.9,0.7-20.9,0.5c-0.4-0.2-1-0.9-1-0.9c3.1-1.4-0.8-2-0.3-3.1
		c0.8-2.2,2.8-2,4.6-2.1c17.4-1.3,34.8-1.8,53,1.6c-4.4-4.7-8-9-12.7-12.3c-11.2-7.8-23.7-12.5-37.2-14.7c-2.4-0.4-5-0.5-7.2-1.9
		C106.3,43.5,107.3,43,112,43z"/>
	<path class="st13" d="M173,155.8c-0.1-1.9-2.1-3.8-0.3-5.8c-0.1,2.4,0.5,4,3.4,2.9c2.8-1.1,5.6-2,8.4-2.9
		c7.6-2.5,12.3-7.3,12.9-15.7c0.1-1.6-0.1-4.2,2.4-4.4c2.6-0.2,3.8,2,4.3,4.1c2,9.8,1.2,19.3-3.3,28.4c-0.5,1-1.5,1.8-2.4,2.4
		c-8.1,4.9-16.4,9.3-25.5,12.1c0-0.7,0-1.4,0-2.1c0.1-2.2,1.9-2.5,3.4-3.1c4.7-2.1,9.2-4.8,13.9-6.7c7.4-3,9.8-9,10.3-16.2
		c0.2-3.6-0.1-7.3,0-11.1c-1,10-8.2,13.8-16.3,16.7C180.6,155.1,177,157.3,173,155.8z"/>
	<path class="st14" d="M38,115c-2.8-6.3-3.9-13-3.2-19.8c0.3-3.3-0.7-5-3.9-5.4c-0.2-0.5-0.1-0.9,0.2-1.2c5.2-3.1,4.7-8.5,5.3-13.4
		c-0.3-1.1-0.1-2.2,0.3-3.3c0.2-0.4,0.4-0.8,0.6-1.2c0.6-1,1.3-1.9,2.4-2.3c2.4-1.1,3.1-3.6,4.9-6.2c-3.8,0.5-6.9,1.7-10.1,0.7
		c-1.3-0.5-2.9-0.5-3.8-1.8c2.4-1.3,5.4-0.5,7.9-2.3c-1.1-1.1-2.1-2.3-3.2-3.4c0.3-0.5,0.8-0.8,1.4-0.9c4.5,0.8,9.1,1.8,13.7,1.4
		c1.6,0.1,3.2,0,4.7,0.8c2,3-1.1,3.6-2.4,5.1c-1.5,1.1-2.6,2.6-3.6,4.1c-3.8,3.5-4.9,8.6-7.4,12.9C38.6,88.7,37,99,40.1,109.6
		c0.5,1.7,1.1,3.5,0.2,5.3C39.5,115.6,38.8,115.6,38,115z"/>
	<path class="st15" d="M112,43c-2.3,1-4.7,1.9-7,2.9c-5.7,3-11.6,1.7-17.5,0.8c-1.2-0.7-1.4-1.8-1.1-3.1c0.3-0.9,1-1.2,1.8-1.2
		c3,1.6,5.7,1.8,7.3-1.9c2.6-3.2,6.7-4,10.1-6.6c-3.5,1.5-8.7-2.2-9.9,4.4c-0.7,1.5-1,3.4-3.4,3.2c-1.9-0.8-0.9-2.9-2-4.2
		c-2.6,0.2-2.8,2.8-4.3,4.1c-0.8,0.6-1.8,0.8-2.7,0.9c-1.8,0.1-3.3,1.2-5,1.5c-1.4,0-2.8-0.2-2.7-2c0-1.3,0.9-2,2.3-1.9
		c3.1,0.4,4.8-2.1,6.7-3.7c6-5,13-5.8,20.4-5.5c9.8,0.3,9.8,0.1,7.8,9.4C112.6,41.1,112.3,42.1,112,43z"/>
	<path class="st16" d="M38,115c0.7,0,1.3,0,2,0c2.9,1.9,3.6,5.4,5.4,8.1c6.6,10.1,15.3,17.7,26,23.1c1.9,2,5.8,1.1,6.6,4.7
		c0,1,0,2,0,3c-1.3,0.8-2.4,0.1-3.6-0.3c-6.3-2.9-12.1-7.3-19.6-6.4c-3.5-1-7.3-1.2-9.8-4.4c-2.7-1.8-2.9,0-3,2.1
		c-1.4-1.9-3.3-3.5-4.1-6.3c7,0.4,12.7,4.3,20.5,5C49.3,134.9,41.6,126.4,38,115z"/>
	<path class="st17" d="M67,191.3c-0.1,1.3-1,1.7-2.2,1.8c-1-1.7-1.9-3.4-2.9-5.1c-0.6-1.3-1.1-2.6-1.7-3.9
		c-4.1-2.9-5.5-7.1-5.5-11.9c-0.8-1.6-0.2-3.7-1.7-5.1c-0.9-1.9-1.7-3.8-2.7-5.6c-1.5-2.7,0.6-3.4,2.2-4.5c1,0.1,2.7-0.1,2.8,0.3
		c2.2,5.9,7.2,2.9,11,3.6c3.1,0.6,6.6-1.2,9.5,1.1c-6,1.9-12,0.9-18.1,0.7c-1.2,0-2.6-1.5-3.5,0.1c-0.9,1.7-0.1,3.2,1.5,4.1
		C59,175.3,63,183.3,67,191.3z"/>
	<path class="st18" d="M168,85c2-0.2,2.8-2,4.1-3.2c3.3,1.7,6.6,3.2,10.5,2.4c1.8-0.3,3.4,0.9,5,1.8c1.5,0.8,3.3,1.9,2.9,3.6
		c-0.4,1.9-2.6,2.7-4.4,2.3c-3.3-0.6-2.9,1.2-2.9,3.4c0,3.4-0.3,6.8-5.3,4.6c-1.7-1.2-2.4-3-2.9-4.8c-0.4-1.7,0-3.6-0.4-5.3
		c-0.4-1.7-0.6-3.8-3.3-2.7c-1.2-0.1-2,1.1-3.2,1C167.1,87.1,167.1,86.1,168,85z"/>
	<path class="st12" d="M175.9,94.8c0.7,1.7,1.4,3.4,2.1,5.1c-0.4,4.3,1.9,8,2.2,12.2c0.5,6.5,0.4,12.7-4.3,17.9
		c-2,2.1-2.5,0.8-2.7-1.2c0.8-3.4,3.1-6.5,2.4-10.2c-0.1-2.1,0-4.1,0-6.2c0.1-3.1-0.5-6-1.5-8.9c-1.3-3.3-2.9-6.5-4.4-9.7
		c-0.8-1.7-2-3.4-0.8-5.5c0-1.6,0.9-1.9,2.2-1.3C175.2,88,174.4,92.2,175.9,94.8z"/>
	<path class="st19" d="M178.1,41.4c0.5-0.1,0.7-0.2,0.7-0.1c3.2,2.5,9.4,1.1,10.4,5.3c0.8,3.4-1.3,7.7-1.2,11.7
		c0.1,2.8-1.5,3.1-3.5,2.1c-1.7-0.7-3.2-1.8-4.8-2.6c-4.2-1.9-7.6-3.9-2.3-8.5C179.7,47.2,178,44.3,178.1,41.4z"/>
	<path class="st20" d="M37.1,54.9c-0.5,0.1-1,0.2-1.5,0.3c-4.6-4.3-4.5-9.5-2.7-14.9c0.6-1.7,1.4-3.3,2.1-5
		c-0.5-0.6-0.6-1.4-0.3-2.1c4.3-3.4,8.9-6.2,13.5-8.9c1.8-0.7,3.5-1.3,5.5-0.8c3.6,2.2,7.7,0.4,11.5,1.5l-0.1,0
		c0.6,0.7,1.8,1.3,0.8,2.5c-6,0.3-12.1,0.4-17.8,3.1c-4.7,2.2-8.2,5.5-11.1,9.6c-2.2,3.1-1.8,6.6-1,10
		C36.3,51.7,37.5,53.1,37.1,54.9z"/>
	<path class="st21" d="M35,33c0,0.7-0.1,1.5-0.1,2.2c-7.7-4.5-9.5-10.4-4.9-17.7c1.3-2,1.2-3.5,0.5-5.5c-0.5-1.5,0.6-3.4,1.7-2.3
		c3.7,3.8,8.6,1.5,12.6,3.2c0.6,0.7,1.7,1.1,1.1,2.3c-1.4,1.1-3.1,0.9-4.8,1c-7.8,0.5-10.6,4-9.3,11.7C32.5,29.9,34.6,30.9,35,33z"
		/>
	<path class="st22" d="M30.8,60.9c1.4,0.3,3.1-0.4,4.2,1.2c0.9,1,2.4,1.2,3.3,2.3c0.5,0.7,1,1.4,1.4,2.2c0.4,0.7,1,1.5,0.3,2.3
		c-0.6,0.7-1.2,1.3-1.8,2c-1-0.1-1.6-0.8-2.2-1.6c-5.1-6.1-5.1-6.1-9.5-3.4c1.6,2.5,5,3.7,5.1,7.2c-0.3,1-1.1,1.4-2.1,1.5
		c-2.4-0.2-3.7-2.1-5.2-3.5c-1.3-1.3-2.6-2.6-4.6-2.8c-0.7-0.3-1.2-0.7-0.7-1.5C20.7,60.6,26.2,61.6,30.8,60.9z"/>
	<path class="st23" d="M65.9,27.2c-0.3-0.8-0.6-1.5-0.9-2.3c7.2,1.7,11.5,6.7,12.9,15.1c-0.8,0.5-1.8,1-1.5,2.2
		c0.3,1.2,1.5,0.8,2.4,0.9c0.8,0.1,1.3,0.5,1.4,1.3c-3.1,3.7-7,4.6-11.4,2.7c-0.1-0.7,0.2-1.3,0.7-1.7c5.3-4.7,5.2-9.4-0.4-14.1
		C67.8,30.1,65.8,29.5,65.9,27.2z"/>
	<path class="st24" d="M20,68c1.3-1.7,2.1-0.4,3.1,0.5c2,1.8,4.1,3.6,6.1,5.4c0.1,2.9-2.4,3-4.1,4c-2.5,1.1-5.1,2.1-7.7,3
		c-1.8,0.6-3.7,1.7-5.4-0.1c-0.2-2.5,1.5-4.2,2.8-6c1,0.2,2-0.6,3,0c1.7,0.7,3.1,0.8,3.7-1.5c0.7-2.7-2.2-0.9-2.6-2.2
		C18.3,69.8,19.1,68.9,20,68z"/>
	<path class="st25" d="M37.8,71.7c-0.3,1.1-0.6,2.2-0.8,3.3c0.1,3-4,3.1-4.2,5.9c-0.3,0.8-0.7,1.6-1.1,2.4c-1.2,1.8-0.2,3.9-0.7,5.8
		c0,0.2,0,0.4,0,0.6c-5.4,0.5-10.3-1.4-15-3.7c-0.3-0.4-0.3-0.8,0-1.3c1.2-0.9,2.6-0.8,3.8-0.3c4.4,1.8,6.9,0.2,8-4.2
		c0.2-0.6,0.6-1.2,0.9-1.8c1.3-2.7,3.9-4.1,5.8-6.1C35.5,71.7,36.5,71.1,37.8,71.7z"/>
	<path class="st26" d="M16,85.1c0,0.3,0,0.7,0,1c-1.9-1.3-6.8-0.2-4-5.2c4.7,0,8.5-3.2,13-3.9c1.1,0.5,2,1.2,2.3,2.4
		c-1.4,2.6-4.3,2.4-6.6,3.5C19.1,83.6,17.2,83.5,16,85.1z"/>
	<path class="st27" d="M45.9,15.2c-0.3-0.8-0.7-1.5-1-2.3c4.1,0.5,7.4,2.6,8.9,6.2c1.5,3.5,3.2,5.3,7.1,4.8c1.3-0.2,3-0.1,4.2,1
		c-4.1-0.3-8.4,1.2-12.4-1.1C50.6,20.8,47.5,18.6,45.9,15.2z"/>
	<path class="st28" d="M174,129.1c-0.1,1.7,0.9,1.4,1.9,0.9c-2,4.8-5.9,7.9-9.9,10.8c0-0.8-0.3-1.5-1.2-1.9
		C166.4,134.3,169.8,131.2,174,129.1z"/>
	<path class="st29" d="M16.9,74.8c-0.7,0.2-1.3,1.9-2.1,0.1c1.4-2.6,2.8-5.3,4.1-7.9c0.4,0.4,0.7,0.7,1.1,1.1
		c-0.3,1-0.6,1.9-0.9,2.9C19.6,73,18.4,73.9,16.9,74.8z"/>
	<path class="st30" d="M102,162c-1.9,2.3-3.9,4.4-5.7,6.8c-1.8,2.4-4.6,5.2,1.6,5.5c1.8,0.1,1,1.7,1.2,2.8c0.4,2.8,0.6,5.6,1.1,8.3
		c0.2,1.2,0.7,2.6,2.4,2.8c1.5,0.1,2.1-1,2.5-2c1.3-3,2.8-2.2,4.8-0.6c1.7,1.4,3.6,3.3,6.1,1.3c0.2,1.3,0.2,2.7,0.5,3.9
		c0.6,2.1-1.4,2.8-2,2c-2.6-3.8-6.3-0.1-9.4-1.9c-2.2-1.3-3.3,1.4-2.8,3.3c0.5,1.6,1.3,3.1-0.6,3.6c-2,0.5-1.7-1.6-1.8-2.8
		c-0.4-5.4-4.7-8.6-7.9-11.9c-2.7-2.8-2.3,2.5-4.1,3c-0.5-7.1-1.4-14.1,0.2-21.2c0.6-2.8,1.4-5.4,3.2-7.6
		C95.1,158.3,100.2,156.4,102,162z"/>
	<path class="st31" d="M91.3,157.2c-2.5,9.4-3.8,19-3.5,28.8c-0.2,1.1-0.5,2.2-0.7,3.3c0-3-0.1-5.9-0.1-8.9c0-1.5,0.2-3.1-1.9-3.4
		c-2-1.8-0.9-3.9-0.8-6c0.3-4.1,1.6-8,1.7-12.2C87.5,157.2,90,159.3,91.3,157.2z"/>
	<path class="st32" d="M118.7,172.9c0-2.2,1.3-2.5,3.2-2.5c2.9-0.1,5.8-0.5,8.9-0.8c0,4.4,0,8.9,0,13.4c-2.2-2.7,0.8-7.9-1.7-8.5
		c-2.4-0.6-5.7,0.3-8.5-0.9C120,173.3,119.3,173.1,118.7,172.9z"/>
	<path class="st33" d="M135.1,184c0.7-1.6,1.3-3.4,3.3-1.2c2.1,2.4,5,3.5,7.6,5.2c-1.5,2.8-3,3.7-5.4,0.7
		C139.1,186.9,136.9,185.6,135.1,184z"/>
	<path class="st33" d="M149.1,187c0-3.2,0-6.3,0-9.5c3.5,3.3,4,7.5,4.8,11.5c-1.3,0-2.7,0.1-2.9-1.8
		C150.7,184.2,149.7,187.3,149.1,187z"/>
	<path class="st34" d="M177.1,112c-0.1,2.3-0.2,4.7-0.2,7c-1.9,8.1-6.8,14-13.2,19c-1.7,1.3-3.6,2.9-5.7,3c-3,0.2-3.5,1.9-3.9,4.2
		c-6.6,4.2-14.2,5.3-21.4,7.7c-4.5,0.4-9,0.9-13.5,1.3c-3.7,1-7.5-0.3-11.2,0.7c-0.7,0-1.3,0-2,0c-5.7-1-11.3-2.2-16.7-4.2
		c-3-1.1-5.2-2.5-6.5-5.4c-2-4.5-4-9.1-7.7-12.6C69,122.7,64.5,112,60.9,101c-0.8-2.4-1.4-4.8-2.1-7.2c-1.1-3.7,0-6.1,3.7-7.4
		c12.8-4.5,26-6.8,39.3-8.5c1.2-0.1,2.3,0,3.3,0.9c7.3,0,14.6-1.5,21.9-0.8c7.6-1.6,14.7,3.4,22.6,0.9c4.5-1.4,7.2,3.1,5.6,7.6
		c-1.4,4-1.2,8.1-0.1,12.2c0.5,2.2,0.2,4.1-1.9,5.2c-2.4,1.3-3.6-0.6-4.8-2.2c-2.7-3.6-4.8-3.7-7.8-0.3c-0.6,0.6-1,1.3-1.5,2
		c-3.1,4.2-5,4.1-7.7-0.3c-1-1.6-1.3-3.9-4.4-4.1c1.5,4.4-4.6,10.1,3.1,13.1c2.9,1.1,3.8,4.1,5.7,6.1c5.1,3.9,5.6-1.7,7.7-3.8
		c1.8-1.9,3.6-3.8,5.3-5.9c1.1-1.3,3.1-2.6,4.1-0.7c1.9,3.5,4,2.2,6.5,1.2c2.8-1.1,3.4,0.6,3.5,3.1c0.1,1.8-3.5,4.4,0,5
		c2.8,0.5,7.6,2.7,8.7-3.1C173.2,112.5,174.8,111.2,177.1,112z"/>
	<path class="st35" d="M105,78.7c-14,1.9-27.9,4.1-41.4,8.6c-3.9,1.3-4.5,3-3.5,6.8c3.6,13.4,9.4,25.8,15.5,38.1
		c2.8,5,6.9,9.5,6.3,15.8c-0.7,0.3-1.5,0.7-2.2,1c-3.9-1.3-4.3-5.4-5.5-8.3C69.7,129,63.4,118,59.5,106c-1.3-4.1-2.5-8.3-3.6-12.4
		c-1.2-5.6-0.6-7.1,4.6-9.2c12.9-5.2,26.4-8,40.2-9.5c1.5-0.2,3-0.2,4.2,1c0.6,1.5,2.3,0.7,3.2,1.6C107,77.9,106,78.3,105,78.7z"/>
	<path class="st36" d="M137,154.8c1.3,0.2,2.8-1.4,3.7-0.2c1,1.4-0.5,2.7-1.3,3.9c-5.8,8.9-19,11.6-28.9,5.8
		c-1.9-1.1-3.7-2.3-5.5-3.4c-1.6-2.2-0.2-2.2,1.6-2.4c8.1-0.6,16.2-0.8,24.2-2.4C132.8,155.7,134.9,155.2,137,154.8z"/>
	<path class="st37" d="M86,158.8c2.3,0,1.5,1.3,1.2,2.6c-1,5.1-2.2,10.3-2.1,15.5c-1.2,6.8-0.7,13.8-1.2,21.4
		c-4.1-3-3.8-6.7-3.9-10.1c-0.1-3.1,0.7-6.1-3.7-7.4c-2.2-0.6-2.3-3.6-1.9-5.7C75.8,168,78,161.3,86,158.8z"/>
	<path class="st38" d="M45,142.8c3.3,1.1,6.7,2.2,10,3.3c7.4,0.3,13.4,4.7,20.2,6.8c1,0.3,1.9,0.7,2.9,1c0,0-0.1,0.2-0.1,0.2
		c2.3,1.3,1.9,2.6,0,3.9c-9.9,3.5-18.4,0.1-25.6-6.4C49.6,149.1,45.4,147.4,45,142.8z"/>
	<path class="st39" d="M57,94c5,18.5,14.3,35.3,21.5,53c0.3,0.7,0.9,1.4,1.4,2c0.1,1.3-0.6,1.9-1.8,1.9c-1.9-2.1-5.2-1.6-7-3.9
		c2.1-1.1,3.1-2.3,1.6-4.9c-5.5-9.4-8.4-20-13.5-29.7C56.1,106.9,53.8,100.6,57,94z"/>
	<path class="st40" d="M82.1,148c-2.1-5.3-4.2-10.6-6.3-15.8c4.7,2.5,5.6,7.7,7.9,11.7c1.6,3,3.3,4.3,6.4,5.6c5.2,2.3,11,2.5,16,5.3
		c-6.8,0.5-13.3-1.1-19.8-3.1C84,151.2,83.2,149.5,82.1,148z"/>
	<path class="st41" d="M78,158c0.9-1.3,1-2.6,0-3.9c2.5-0.4,4.8,0.7,7.5,1.3C83.1,157.4,80.4,157.1,78,158z"/>
	<path class="st40" d="M108,154.9c3.6-1.8,7.4-0.7,11.2-0.7C115.5,155.6,111.7,154.9,108,154.9z"/>
	<path class="st42" d="M184.1,153.2c9.1-3.1,15.9-8.3,16.7-19.2c1.9,6.2,1.9,12.2,0.9,18.3c-1.1,6.8-4.8,11.3-11.2,14.1
		c-5.9,2.5-11.6,5.6-17.4,8.4c-4.3-1.3-0.7-3.9-1-5.9c1.3-1.3,1.2-3.1,1.4-4.7c0.6-5.7,3.6-9,9.2-9.9
		C183.2,154.3,183.6,153.7,184.1,153.2z"/>
	<path class="st43" d="M158,190.9c-3.1-11.2-6.1-22.5-9.2-33.7c-0.4-1.8-0.2-3.1,2.2-2.2c4.6,3.8,7.4,8.8,9.6,14.2
		c1.1,2.8,2.6,5.8-0.7,8.6c-1.9,1.5,0.5,3.3,0.8,4.9C161.2,186,163.6,189.7,158,190.9z"/>
	<path class="st44" d="M164.1,170.1c-1.8-6.2-5.7-11.1-9.9-16.7c5.7-0.2,10.4-2,15.3-3.8c1,4.1,0.1,7.8-0.6,11.5
		c-1.5,2-0.6,4.4-1,6.6C167.5,169.7,166.9,171.6,164.1,170.1z"/>
	<path class="st45" d="M164.1,170.1c2.8,0.1,2.8-1.7,3-3.8c0.1-1.8-1.3-4.4,1.8-5.3c0.4,8.8-2.4,17.3-3.1,26
		c-1.8-3.6-4.2-7-1.3-11.1C165.8,174,164.1,172,164.1,170.1z"/>
	<path class="st46" d="M184.1,153.2c-0.2,1.8-2,1.3-2.9,2c-2.8,2.2-6.5,3.6-6.4,8.4c0,1.8-0.4,4.3-2.8,5.4c0.3-4.4,0.7-8.8,1-13.1
		C176.7,155,180.4,154.1,184.1,153.2z"/>
	<path class="st47" d="M150.9,155c-1.5,0-1.8,1.1-2.2,2.2c-0.3-0.7-0.8-1.4-0.9-2.2c-0.2-1-1.4-2.3-0.2-3.1c1.5-1,1.9,1.4,3.2,1.4
		C150.9,153.9,150.9,154.5,150.9,155z"/>
	<path class="st48" d="M54.7,172.2c1.8,4,3.7,7.9,5.5,11.9c-0.2,1.4-0.9,2.4-2.2,3.1c-1.9-3.4-3.7-6.9-5.6-10.4
		c-2.1,1.1-4.2,2.2-6.4,3.3C48.6,177,50.8,173.7,54.7,172.2z"/>
	<path class="st49" d="M40,192c-3.1-1.6-2.1-3.4-0.1-5.1C41.3,188.5,40.3,190.3,40,192z"/>
	<path class="st50" d="M145.5,183.6c-2.5-0.2-3.6-2.3-5.2-3.5c-1.5-1.1-2.4-4.1-5.2-1.9c-0.7,0.5-1.1,0-1.4-0.7
		c-1.5-3,1.1-11.3,4.5-12.2c4-1.1,6.2,2.8,8.8,4.9c1.6,1.3,2.9,2.9-0.1,5C144.3,177,146.9,180.8,145.5,183.6z"/>
	<path class="st51" d="M107.7,179.2c-2.1-0.1-3,1.8-4.3,3.1c-1.3-2.4-1.2-4.8-1.2-7.2c0-1.1,0-3.1-0.5-3.2c-4.2-1.4-1.5-3-0.4-4.7
		c1.9-2.7,3.8-3.9,6.7-1.1c1.1,1.1,2.7,1.9,4.1,2.8c1.8,2,2.1,4.4,1.8,6.9C113.4,180.5,112.3,181.1,107.7,179.2z"/>
	<path class="st52" d="M154.1,145.1c-0.2-2-1.5-6.4,0.7-5.4c3.1,1.5,4.5-0.7,5.6-1.3c3.3-1.9,5.7-5.5,8.8-7.4c4.8-3,3.4-9.2,7.6-12
		c1.2,3.9-1.6,6.8-2.8,10.1c-3.1,3.3-6.1,6.6-9.2,9.8C160.8,140.3,158.2,144.1,154.1,145.1z"/>
	<path class="st53" d="M107.7,179.2c5,0.7,5.8-0.1,5.3-5c-0.2-1.8-0.6-3.6-0.8-5.4c2.7,0.2,4.5,0.9,3.1,4.3
		c-0.6,1.3-0.5,2.9-0.9,4.3c-0.6,1.8,0.5,4.7-1.6,5.3C110.7,183.1,109.2,180.6,107.7,179.2z"/>
	<path class="st54" d="M147.8,165.6c-6.3-3.2-6.3-3.2-3-10.3C146.5,158.7,146.9,162.1,147.8,165.6z"/>
	<path class="st55" d="M57,94c-0.3,7.5,0.8,14.3,4.9,21c3.1,5,4,11.2,7,16.3c2.8,4.8,3.7,10.5,7.9,14.7c-1.9,1.6-3.9,0.7-5.8,1
		c-14.5-6.6-24.6-17.5-30.9-32c-4.3-12.8-3.9-25.4,1.1-38c5-2.5,5.6-8,8.5-12c1.4-1,2.2-2.3,2.4-4c1.3-1.3,2.7-2.7,4-4
		c0.1-0.2,0.2-0.5,0.3-0.7c5.2-4.5,11.3-7.3,18.1-8.4c2.5-0.4,4.5-2,7-2.2c1.9-0.2,3.9-1.2,5.7,0.3c6,0,12-0.1,18-0.1
		c17.1,1.7,33,6.8,46.9,17.2c4.9,3.6,9.2,8,12.7,13.8c-13.3-2.3-26.1-3.3-39-2.7c-6.9,0.3-13.9,0.1-20.7,1.7
		c-15.1,1.2-29.7,4.4-43.9,9.5C56.1,87.1,55.7,89.9,57,94z"/>
	<path class="st56" d="M130.3,112.9c-4.7-0.6-6.4-3.2-5.4-7.8c0.4-1.9,2.9-4-0.4-5.8c-0.6-0.3,0.2-1.7,1.1-1.7c1.7,0,3.7-1.5,5,0.8
		c0.8,1.4,1.6,2.9,2.2,4.4c1.8,4.2,3.5,3.2,5.2,0c1.2-2.2,2.5-4.1,5.2-5c2.9-0.9,5.2-1.5,6,2.5c0.3,1.6,1.4,3.4,3.4,2.7
		c1.9-0.7,1.5-2.4,1.3-4.4c-0.6-4.7-2.4-9.7,1.2-14.1c0.7-0.9,1-1.8-0.1-2.5c-2-1.2-3.8-3.8-6.6-2.4c-4.5,2.2-8.7,2.5-12.9-0.8
		c-1.3-1-2.8-0.8-4.3-0.3c-1.4,0.5-2.9,1-4.1-0.6c12.5-0.9,25,0.2,37.3,2.5c2.8,0.5,2.9,2.7,3.7,4.6c-0.1,1.2,0.1,2.3,0.9,3.2
		c1.4,5.2,5,9.5,6.2,14.8c0.8,1.8,0.8,3.3-1.7,3.4c-2.2,0.1-4.2,0.8-6.1,1.8c-1.7,0.9-3.1,2.3-2.2,4.4c0.7,1.8,2.4,2,4.2,1.6
		c0.9-0.2,1.9-0.8,2.8-0.1c0.2,3.9-1.1,5.7-5.3,4.3c-2.4-0.8-5-4.2-4.8-6.9c0.2-2.3-0.6-2.4-2.7-1.5c-2.3,1-5.7,5.3-6.7-1.5
		c-0.3-2.1-2.3-0.5-2.9,0.5c-1.5,2.3-3.4,4.2-5.5,6c-2.3-3.2,0.6-6.7-0.8-10.4c-1.2,2.5-3.6,2.6-5.8,3.1c-2.5,0.4-5.1,1.5-7.4-0.9
		C129.8,109.2,131.4,111,130.3,112.9z"/>
	<path class="st57" d="M65.9,27.2c1.8,2.4,5.2,3,6.8,5.6c4,6.7,3.1,10-3.8,14.1c-3,3.6-8.1,3.5-11.4,6.5c-2,1.4-4.3,2.4-6.6,3.5
		c-4.8,0.1-9.6,1-13.9-2.1c-6.8-10.1-2.4-17.7,7.5-23.9C50.9,26.9,58.2,24.9,65.9,27.2z"/>
	<path class="st58" d="M37.8,71.7c-0.9,0.5-1.9,0.9-2.8,1.4c-1.4,0.6-2.8,1.4-3.9-0.5c-2.1-2.1-4.2-4.2-6.3-6.3
		c1.8-3.1,4.4-2.4,6.8-1.3c1.9,0.9,3.5,2.4,5,3.9c0.5,0.7,1,1.3,1.5,2C38,71.2,37.9,71.4,37.8,71.7z"/>
	<path class="st59" d="M31,89.1c-2.7-2-1.4-4.1-0.1-6.1c2.9,0.2,1-1.3,0.8-2.2c0-3.5,3.4-3.9,5.2-5.8c1.4,0.1,1.5,0.8,1.2,2
		c-0.8,2.7-1.7,5.4-2.1,8.2C35.6,88.3,33.9,89.3,31,89.1z"/>
	<path class="st60" d="M39.9,69c-0.3-0.7-0.6-1.3-0.8-2c0.4-1.2,0.9-2.4-1.2-1.6c-0.9-1.2-3-1.2-2.9-3.2c3.9-0.5,7.7-1.1,12.9-1.8
		C44.3,63.4,44.5,68.1,39.9,69z"/>
	<path class="st61" d="M50,65c-1.6,5-2.3,10.7-8.9,12c2.7-3.9,3.2-9.3,7.7-12.1C49.2,64.6,49.6,64.6,50,65z"/>
	<path class="st62" d="M51,56.9c1.6-2,3.6-3.3,6-3.9c1.3,1.7-0.4,2.7-1,4c0,0,0,0,0,0C54.3,57,52.6,57,51,56.9z"/>
	<path class="st63" d="M50,65c-0.4,0-0.8-0.1-1.2-0.1c0.4-1.9,1.6-3,3.2-3.9C54.2,63.7,53.7,65.1,50,65z"/>
	<path class="st64" d="M56,57c0.3-1.3,0.7-2.6,1-4c3.1-3.7,7.8-4.3,11.9-6.1c4,0.3,7.7-0.5,11.1-2.8c0.9-1.3,2.2-2.1,3.3-3.2
		c0.7,0,1.5,0,2.2,0c1.4,0,1.4,1,1.5,2c0,1,0,2,0,2.9C75.9,47.5,65.5,50.9,56,57z"/>
	<path class="st65" d="M94.6,38.2c0.1-3.9,1.9-5.6,5.9-5.1c2.4,0.3,4.9,0.1,8.7,0.1c-5,3.1-9.1,5.6-13.2,8.1
		C93.9,41,94.7,39.4,94.6,38.2z"/>
	<path class="st66" d="M101,41c3.6-1,6-3.9,9.4-5.3c0.4,6.5-0.7,7.5-7.4,7.3C101.4,43.3,100.7,42.7,101,41z"/>
	<path class="st67" d="M87,43.1c-0.9-0.4-1.2-1.2-1.5-2c1.3-4.2,1.8-4.6,6.8-5.8c-0.1,2-0.2,3.9-0.3,5.8c0.1,2.2-0.9,2.9-3,2
		C88.3,43,87.7,43,87,43.1z"/>
	<path class="st64" d="M89,43c1.2-0.3,2.5-0.7,3-2c2.1,0.2,1.7-1.9,2.6-2.8c0.4,1.1-0.1,2.5,1.4,3.1C94,45.9,92.1,46.4,89,43z"/>
	<path class="st12" d="M101,41c0.1,1.2,1.1,1.5,2,2c-0.3,2.1-1.8,2.6-3.1,1.6C98.5,43.3,100,42,101,41z"/>
	<path class="st68" d="M83.3,41c0.1,2.2-1.3,3-3.3,3.2c-0.4-0.4-0.8-0.7-1.2-1.1C80.2,42.1,81.4,40.8,83.3,41z"/>
	<path class="st69" d="M75.2,152.9c-5.6,0.3-9.7-3.8-14.9-4.9c-1.6-0.3-4-0.2-5.3-1.9C62.9,144.9,68.8,149.5,75.2,152.9z"/>
	<path class="st70" d="M175.9,94.8c-2.7-2-2.8-5.5-4.9-7.9c0.4-0.9-0.9-2.9,0.7-2.5c1.9,0.4,4.1,1.6,4.3,4.1
		C176.2,90.6,176,92.7,175.9,94.8z"/>
	<path class="st71" d="M178.9,89.8c2.3,2.6,2.3,4.9,1.9,7.4C178.6,95,178.5,94.6,178.9,89.8z"/>
	<path class="st72" d="M172,114.1c-0.8,0.5-1.6,1.2-2.5,1.4c-2.7,0.7-5.2,0.1-6.2-2.6c-0.9-2.4,0.4-4.8,2.7-5.7
		c2.2-0.9,4.4-2.7,7-2.1c2.2,0.5,2-0.9,2.2-2.2c1.5,2.8,2.3,5.8,2,9C175.4,112.7,173.7,113.4,172,114.1z"/>
	<path class="st73" d="M184.8,57.3c-1.7-0.8-2.9-1.5-4.3-2.1c-2.2-0.9-3.4-2-1.2-4.2c0.3-0.3,0.3-1,0.6-1.3c1.2-1.1-0.9-4.6,2.8-3.9
		c3.7,0.7,3.6,3.1,3,5.9C185.4,53.4,185.2,55.2,184.8,57.3z"/>
	<path class="st74" d="M45.9,15.2c3.3,2.1,6.2,4.4,6.8,8.6c-1.5,0.4-3.1,0.8-4.6,1.3c-2.1,0.8-4.2,1.8-6,3.2
		c-3.6,2.6-7.1,2.9-10.9,0.7c-3-7.3,1.1-13.8,8.9-14C42,14.9,44,15.1,45.9,15.2z"/>
	<path class="st75" d="M31.1,29c4.7,0.1,9.5,0.7,13.2-3.3c1-1.1,2.5-0.6,3.8-0.6c-4.3,2.7-7.9,6.7-13.1,7.9
		C33.3,32,31.9,30.9,31.1,29z"/>
	<path class="st76" d="M31.1,72.6c1.3,0.2,2.6,0.3,3.9,0.5c-1.1,2.7-4.5,3.3-5.3,6.2c-0.8,0.4-1.7,0.7-2.5-0.1
		C25.9,79,25,78.5,25,77c1.2-1.3,3.7-0.8,4.2-3C30.1,73.9,30.9,73.6,31.1,72.6z"/>
	<path class="st77" d="M36.6,69c-2.1-1.2-4.2-2.6-6.4-3.5c-1.8-0.8-3.9-1.1-5.4,0.9c-1.2-1-2.2-1.6,0.4-2.4
		C30.7,62.1,34.3,63.8,36.6,69z"/>
	<path class="st78" d="M37.9,65.4c0.2-1.5,0.8-2.5,2.6-2.2c0.4,0.1,1.1,0.5,1.1,0.8c0.1,1.6-0.6,2.9-2.4,3.1
		C38.7,66.4,38.3,65.9,37.9,65.4z"/>
	<path class="st79" d="M16.9,74.8c0.7-1.3,1.5-2.5,2.2-3.8c1.5,0.2,3.4-0.6,3.6,2.1c0.1,1.5-0.2,2.8-1.4,3.5
		C19.3,77.6,17.8,76.7,16.9,74.8z"/>
	<path class="st80" d="M27.3,79.1c0.8,0,1.6,0.1,2.5,0.1c-2.1,2.2-1.3,6.7-4.1,7.4c-2.5,0.7-5.7-1-8.6-1.7c-0.3-0.1-0.7,0-1,0.1
		c-0.8-1.4-0.1-1.8,1.3-2.3C20.6,81.7,23.9,80.4,27.3,79.1z"/>
	<path class="st81" d="M31.7,80.8c1,0.4,2.6-0.3,2.8,1.4c0.1,1.1-0.4,2.4-1.8,2.6c-1.3,0.3-1.6-0.8-1.8-1.8
		C31.2,82.3,31.5,81.5,31.7,80.8z"/>
	<path class="st82" d="M114,109c-0.2,3.4-2.6,6.2-2.3,9.8c0.2,1.9-2,2.2-3.8,2.1c-0.8-3.9-3.4-5.3-7.1-5.3c-1.3,0-2.6,0.5-3.8-0.6
		c0-1.1,0.4-2,1.7-2.1c6.1-0.6,1.6-3.6,1.1-5.5c-0.1-0.3-1.8-1.1-1.5-1.5c3.1-3.2,2.2-7.6,3.7-11.3c4.9-1.4,9.4,0.4,13.9,2
		c0,0.6-0.1,1.3-0.1,1.9c-5.3-0.3-0.2,2.4-1,3.5c-1.4,0.8-2.6-0.1-3.7-0.7c-1.9-1-3.8-1.3-5.4,0.5c-1.1,1.2-1.3,2.7-0.6,4.1
		c1,2,2.5,3.5,5,3.3C111.5,109.4,112.6,108.3,114,109z"/>
	<path class="st83" d="M97.1,115.1c3.1-0.8,6-1.1,9.1,0.4c2.7,1.3,3.4,2.9,1.8,5.5c-2.1,0.9-4.2,1.9-6.4,2.6c-3,0.9-5.9,0.3-7.5-2.4
		C92.4,118.3,96,117.1,97.1,115.1z"/>
	<path class="st84" d="M114,109c-5.3,3-9.1,1.8-10.5-3.1c-0.6-2.2,0.2-4,1.6-5.4c1.3-1.3,3.2-1.9,5-0.9c1.6,0.8,3.2,1.8,4.7,2.7
		C115.3,104.6,115.2,106.9,114,109z"/>
	<path class="st85" d="M130.3,112.9c-0.4-3-2.8-5.5-1.5-9.6c1.8,3.7,4.5,4.4,7.7,3.6c2-0.3,4.2-1.2,5.7,1.1c0,2.5-2.1,2.2-3.5,2.5
		c-3.1,0.6-3.5,1.8-1.5,4.1c1,1.1,2.1,2.1,2.8,3.4c-1,3.5-3.1,1.3-4.9,1C132.7,117.5,132.1,114.7,130.3,112.9z"/>
	<path class="st86" d="M141.9,109.2c-0.9-2.8-3.5-1.9-5.4-2.3c2.2-1.3,6.4-0.2,5.9-4.9c0-0.3,0.9-1.1,1.4-1c1.3,0.1,1.5,1.2,1.5,2.2
		c-0.3,4-0.8,7.9-1.2,11.9c-3.4,6.7-4.7,7.3-9,4c1.3-0.4,3,1.1,3.9-1C139,114.7,139,111.5,141.9,109.2z"/>
	<path class="st87" d="M115.9,96.9c-4.9,1.2-9.2-1.7-13.9-2c-0.7-1.2-2.8-3.4,0.3-3.2c4.3,0.3,8.5,1.9,12.7,3.1
		C116,95,115.9,96.1,115.9,96.9z"/>
	<path class="st88" d="M159.9,94.1c3.5-0.3,6.3,0.8,7.7,4.1c1.2,2.9-1,4.4-2.6,6.3c-1.6,1.7-3.1,1.3-4.9,0.8c-2-0.6-3.1-1.8-3.2-3.9
		c0-1.1,0-2.3,0-3.4C156.6,95.7,158.1,94.8,159.9,94.1z"/>
	<path class="st89" d="M159.9,94.1c-1,1.3-2,2.6-3,3.9c-2.2,0.1-4-0.4-2.2-3c2-2.8,4.4-5.3,6.7-7.9c0.6-0.6,1.4-1.2,2.2-0.6
		c1,0.7,0.7,1.8,0.1,2.6C162.6,90.9,160.6,92,159.9,94.1z"/>
	<path class="st90" d="M100.9,35.7c-1.7,1.8-3,1.4-4.6,0.6C97.5,34.5,98.9,34.8,100.9,35.7z"/>
	<path class="st91" d="M141.9,109.2c-0.9,3-1.3,6.1-3,8.8c-2.6-1.8-5.7-4.4-5-7.1C134.4,109.2,139,109.1,141.9,109.2z"/>
</g>
</svg>
