<?xml version="1.0" encoding="utf-8"?>
<!-- Generator: Adobe Illustrator 14.0.0, SVG Export Plug-In . SVG Version: 6.00 Build 43363)  -->
<!DOCTYPE svg PUBLIC "-//W3C//DTD SVG 1.1//EN" "http://www.w3.org/Graphics/SVG/1.1/DTD/svg11.dtd">
<svg version="1.1" id="图层_1" xmlns="http://www.w3.org/2000/svg" xmlns:xlink="http://www.w3.org/1999/xlink" x="0px" y="0px"
	 width="1088.981px" height="921.5px" viewBox="-476.981 -129.5 1088.981 921.5"
	 enable-background="new -476.981 -129.5 1088.981 921.5" xml:space="preserve">
<g>
	<path fill="#030304" d="M537.16,301.752c-5.944,8.743-8.742,9.093-16.786,2.448c-4.546-3.672-9.092-7.169-14.688-8.918
		c-6.295-1.923-8.743-0.35-7.344,6.295c2.797,13.988,2.972,28.327,1.923,42.49c-2.798,34.272-13.464,66.097-32.349,94.598
		c-4.896,7.519-12.415,13.464-19.234,20.808c7.694,2.099,13.989,0,20.284-1.923c9.967-3.322,19.934-6.47,29.025-11.716
		c2.623-1.573,6.295-3.847,8.568-0.175c1.924,3.322-2.273,4.896-4.196,6.645c-11.716,9.617-21.508,20.983-33.923,30.075
		c-15.212,11.191-32.523,15.038-50.533,16.787c-24.48,2.447-48.61,2.973-72.391-4.896c-7.694-2.448-4.547,5.071-5.945,8.394
		c-2.798,1.049-3.322-2.623-5.596-2.623c-2.273-0.524-4.721-0.35-6.994-1.224c-1.224-0.525-1.924-1.399-2.273-2.798
		c1.05-7.694-2.272-11.191-9.268-9.093c-5.42,1.748-10.666,4.196-16.086,6.295c-3.322,1.224-5.421,3.672-4.197,7.519
		c1.225,3.497,4.372,2.973,7.344,3.147c4.547,0.175,9.093-5.246,13.465,0.175c0.35,5.071-1.574,8.743-6.995,9.792
		c-2.622,0.524-5.245,0.35-7.868,0.35c-15.737,0-20.633-6.47-16.262-21.856c1.924-6.82,8.044-7.694,13.464-9.617
		c14.688-2.973,23.956-12.24,29.201-25.879c22.557-33.748,34.622-72.042,49.484-109.461c5.945-15.212,12.415-30.075,18.36-45.288
		c5.246-13.813,4.196-16.611-6.645-26.229c-15.912-13.988-32.873-26.928-50.359-38.993c-4.371-2.973-8.567-5.945-13.639-7.869
		c-11.19-6.819-21.856-14.163-34.446-18.36c-4.021-2.273-8.394-3.497-12.59-5.42c-4.021-2.273-8.218-4.197-12.765-5.246
		c-11.016-3.498-22.032-7.344-33.048-11.191c-13.988-5.071-26.753-1.574-39.518,4.021c-3.322,1.399-6.295,4.546-10.491,2.798
		c-2.099-2.623-0.35-4.197,1.573-5.771c37.944-35.846,83.407-49.31,134.64-45.288c10.316,0.875,20.459,4.197,30.426,7.519
		c9.092,3.147,18.359,5.596,27.452,8.393c3.497,1.224,5.071-0.175,6.645-3.322c8.918-17.661,25.18-25.179,42.665-30.25
		c5.945-1.749,12.24-3.323,18.71-1.749c0.35,3.847-3.147,4.721-5.071,6.819c-5.944,3.497-13.114,2.273-19.409,4.546
		c-9.442,3.498-17.136,9.617-25.004,15.563c-9.442,8.393-7.869,12.765,6.47,18.36c21.507,9.093,37.244,25.704,52.632,42.49
		c5.596,6.995,11.365,13.989,16.087,21.857c2.098,3.497,4.546,5.42,8.393,2.273c1.05-0.699,2.273-1.224,3.673-1.224
		c8.218,2.448,6.294,7.169,2.797,12.24c-2.098,2.623-1.923,5.246-0.35,7.869c1.749,2.973,3.672,5.945,4.547,9.268
		c3.497,12.24,10.491,20.633,23.605,22.906c4.196,1.398,7.693,4.196,10.841,7.169c1.924,1.574,4.021,2.448,6.295,2.798
		C532.44,298.43,535.412,298.779,537.16,301.752z"/>
	<path fill="#16130F" d="M325.059,495.494c0.875,0.699,1.574,1.573,2.448,2.272c0.175,2.623-1.224,4.722-3.147,5.945
		c-7.519,4.371-7.169,10.841-6.12,18.186c1.574,10.666,0.35,21.507,0.699,32.173c0.175,4.547-0.175,9.442,4.372,13.29
		c3.147-13.114,2.447-26.054,4.721-38.818c1.924-10.492,2.973-21.158,7.52-31.125c1.224,1.749,2.447,3.497,3.672,5.246
		c1.049,1.748,1.573,4.371,2.973,5.07c17.485,7.869,19.759,24.306,21.332,40.218c1.924,18.359,1.574,37.069-4.021,54.555
		c-4.722,14.863-0.874,27.104,4.896,40.043c1.924,4.371,7.694,9.792-1.923,12.765c-1.749,0.524-1.225,3.146-1.05,4.721
		c0,5.771,0.176,11.541,0.351,17.485c-7.52-1.049-5.246-7.169-5.421-11.54c-0.35-6.645,0.175-13.289-6.47-17.661
		c-1.224-1.748-1.049-3.322,0.35-4.721c4.721-4.021,1.224-8.044-0.175-11.716c-1.749-4.196-5.771-3.147-9.093-2.447
		c-5.07,1.049-10.316,1.748-15.563,1.573c-11.715-1.224-23.431-4.021-35.32-3.322c-6.295,0.35-12.59,0.699-18.535-1.924
		c-10.142-2.973-16.786,4.896-24.655,8.568c-1.573,7.169-9.267,4.546-13.114,8.219c-1.573,1.398-3.497,1.923-5.595,1.398
		c-2.623-1.398-5.246-2.623-8.394-1.398c-5.596,1.049-10.841,0.874-16.262-1.399c-2.098-0.874-5.771-4.021-6.295-0.35
		c-0.699,4.196-8.043,8.918-0.175,13.289c2.273,1.924,1.399,4.547,1.399,6.819c-0.175,0.875-0.7,1.399-1.399,1.924
		c-1.224,0.524-2.448,0.175-3.497-0.524c-9.617,0.874-11.016-0.35-7.519-8.918c6.12-14.338,6.295-27.453,1.923-43.189
		c-6.47-23.781-3.672-49.135-4.371-73.79c-0.175-6.819,1.574-13.988,9.093-17.66c3.672-1.749,3.322-5.071,2.098-8.219
		c-1.224-3.497-3.147-6.819-3.147-10.841c0-5.071-4.371-3.848-7.169-4.197c-23.955-2.798-46.687-8.917-68.194-19.934
		c-42.49-21.507-66.62-55.079-68.719-103.34c-0.175-4.022-0.175-8.218-0.35-12.24c-0.35-12.939-0.175-12.939-12.59-14.863
		c-12.939-2.098-17.66-15.387-9.093-26.054c2.448-2.973,4.896-5.246,2.448-9.792c-3.672-6.994-3.672-14.163,3.322-19.584
		c7.169-5.595,16.961-5.595,22.906,1.049c6.295,7.169,9.442,4.372,13.464-1.749c9.792-14.338,20.809-27.278,38.644-32.174
		c2.798-0.699,4.022-4.021,5.596-6.47c17.485-27.627,43.015-45.987,71.342-61.025c-0.524,1.923-1.049,3.847-1.574,5.77
		c-0.175,3.497-3.322,4.546-5.245,6.819c-7.344,6.645-16.961,9.967-24.83,16.087c-13.988,11.191-26.229,23.956-36.195,38.644
		c-2.099,3.147-4.896,5.945-8.393,7.344c-17.661,7.344-28.677,21.333-38.294,36.895c-5.596,9.093-7.694,9.268-14.339,0.875
		c-2.798-3.497-5.595-6.819-10.316-7.519c-4.196-0.699-7.693,0.35-9.617,4.372c-1.748,3.672-0.35,6.819,2.623,9.268
		c0.699,0.524,1.398,1.049,2.099,1.573c2.798,2.273,7.519,3.847,6.295,8.394c-0.875,3.672-5.246,2.973-8.219,3.847
		c-5.07,1.574-9.967,3.672-8.393,10.142c1.573,6.47,6.819,5.945,12.064,4.896c10.842-2.448,12.59-0.874,13.464,10.142
		c1.749,26.054,3.497,52.282,16.262,76.063c11.017,18.885,27.628,31.475,46.163,42.141c28.326,14.688,58.927,21.158,90.575,23.955
		c9.268,1.574,18.535,0.7,27.803,0.525c16.262-0.351,17.835,1.398,16.437,17.835c-2.973,7.693-10.316,6.47-16.262,7.693
		c-10.142,2.099-10.666,2.099-5.596,11.191c6.819,12.24,11.191,25.529,17.836,37.769c3.672,6.82,8.567,8.394,15.912,6.645
		c12.239-2.972,23.78-7.519,35.845-10.841c6.12-0.524,7.345-4.721,7.17-9.792c-0.525-12.939,1.398-25.704,2.272-38.644
		c5.071-1.224,4.372-5.771,5.246-9.442C316.317,497.242,319.639,494.444,325.059,495.494z"/>
	<path fill="#0B110A" d="M522.823,296.332c-3.497-2.273-6.994-4.546-10.491-6.82c-2.798-8.743-3.847-18.01-5.071-27.103
		c-0.699-4.896-2.447-8.393-7.344-10.667c-4.196-1.923-8.219-4.546-7.519-10.316c2.973-4.022,6.47-2.798,10.142-1.399
		c3.147,1.049,6.295,1.923,9.268,0.35c3.147-1.749,8.567-3.322,7.169-7.169c-1.224-3.497-6.295-5.596-10.316-7.169
		c-2.099-0.7-3.147,2.098-4.547,3.497c-3.497,3.847-5.944,8.568-11.016,10.841c-2.623,3.497-3.672,9.442-10.491,6.645
		c2.623-4.021,6.994-8.218-1.749-10.316c-0.524-1.224,0.175-2.273,0.874-3.147c4.896-4.021,8.044-9.268,11.716-14.163
		c3.497-5.945,8.044-11.366,10.666-17.836c1.225-5.77,0.524-11.541,0.7-17.311c0.175-5.771,1.573-10.841,6.645-14.338
		c0.874-0.524,1.748-0.699,2.797-0.875c4.547,1.049,6.295,2.623,1.225,5.771c-1.225,0.699-2.273,1.399-2.973,2.798
		c2.099,11.541,4.196,22.906-1.224,34.097c-2.448,5.071,0,7.694,4.896,9.967c15.563,7.169,31.824,5.246,47.911,3.322
		c8.917-1.049,9.617-0.875,7.344,8.218c-3.847,15.038-5.071,29.551,6.12,42.84c6.645,7.869,5.421,10.142-4.547,12.765
		c-7.519,2.098-15.037,4.197-22.73,6.12c-4.896,1.224-9.268,3.497-12.939,6.819c-2.973-0.699-5.945-1.224-9.093-1.923
		c-0.875-3.497,1.748-5.945,3.847-6.995c10.491-5.071,5.07-13.114,4.021-20.108c-1.049-6.819-6.645-8.043-11.891-9.792
		c-1.398-0.35-2.622-1.224-4.546,0.175c-0.175,7.344,2.448,14.338,4.021,21.683C524.221,288.638,526.145,292.659,522.823,296.332z"
		/>
	<path fill="#14171B" d="M512.331,170.434c-4.896,5.596-5.421,12.065-5.421,19.234c0,4.721,1.924,9.792-1.573,13.989
		c-3.672-3.497-2.099-8.218-2.448-12.415c-1.224-15.737-5.945-29.9-16.087-41.966c-8.394-9.967-19.759-13.813-32.174-14.863
		c-5.421-0.524-11.016-0.175-15.737-4.021c0.524-2.973,3.672-3.147,5.071-5.246c13.289,2.098,18.885-2.973,22.382-16.612
		c5.77-22.207,35.321-37.419,57.527-31.999c4.722,1.224,7.694,0,10.667-3.322c3.497-3.847,7.169-7.694,10.666-11.541
		c2.099-2.273,4.721-3.497,7.693-2.098c2.623,1.399,3.147,4.197,2.623,6.82c-1.224,5.595-2.448,11.365-4.021,16.961
		c-1.399,5.246-1.574,10.142,0.874,15.212c12.939,25.005-0.35,70.992-36.545,77.287c-1.398,0.175-2.623,1.224-3.847,1.923
		c0-1.923,0.874-2.798,2.448-3.672c4.196-2.448,0.874-2.798-1.05-3.497c3.847-6.12,11.716-5.596,16.262-10.317
		c0.524-0.524,1.224-1.049,1.749-1.574c8.567-6.295,12.939-14.863,13.988-25.354c2.973-11.366,2.273-22.032-2.798-33.048
		c-4.196-9.442-1.398-19.409,3.322-29.9c-8.918,13.639-13.114,15.563-26.403,12.59c-8.043-1.749-15.737-0.7-22.557,3.672
		c-12.065,7.694-24.479,15.038-25.529,31.824c-0.175,4.196,0.524,6.819,4.372,8.218c9.092,3.147,15.212,10.317,22.556,16.087
		c3.322,3.322,5.421,7.519,7.694,11.716C508.485,159.593,511.632,164.489,512.331,170.434z"/>
	<path fill="#132224" d="M193.567,662.133c1.399-0.175,2.623-0.175,4.021-0.35c1.225,1.049,1.749,2.447,1.749,4.021
		c-0.35,3.847,0.524,7.519,0.35,11.365c-0.699,10.492,6.994,16.786,15.737,10.842c11.19-7.694,23.081-5.771,34.797-8.219
		c24.829-4.896,49.834-1.923,74.663-2.798c5.246-0.175,9.967,1.05,10.316,7.869c-0.524,2.447-2.272,3.147-4.546,3.147
		c-3.672-3.497-8.394-3.497-12.939-3.497c-28.677,0.699-57.353,1.923-86.029,4.196c-4.547,0.35-7.519,2.272-9.617,6.295
		c-3.672,6.994-7.169,13.813-11.191,20.633c-1.748,2.973-3.847,5.945-8.218,5.246c-4.371-0.875-5.421-4.372-5.771-7.694
		c-1.398-13.988-9.093-27.627-3.147-42.315C194.616,668.253,193.567,664.931,193.567,662.133z"/>
	<path fill="#16130F" d="M330.48,688.012c0.699-1.399,2.099-1.574,3.497-1.749c7.169-1.573,14.688-1.573,21.508-5.07
		c3.672-1.749,5.42,0.175,6.47,3.322c1.748,9.092-1.05,17.311-5.596,24.654c-3.497,5.945-8.918,5.771-13.639,0.699
		C336.775,703.573,335.2,694.831,330.48,688.012z"/>
	<path fill="#0F271D" d="M361.954,684.515c-1.574-1.399-2.973-3.497-5.596-1.924c-3.147-5.071-3.847-10.666-3.672-16.437
		c0.175-6.12-0.874-11.891-3.322-17.311c0.175-0.35,0.35-0.875,0.524-1.225c9.268,0.699,7.519,8.219,8.568,13.989
		c1.049,5.245-2.798,11.54,3.147,15.736C361.78,679.793,361.954,682.066,361.954,684.515z"/>
	<path fill="#EDC3A9" d="M250.396,509.657c0.175-18.011,0.175-18.011-17.661-18.011c-8.918,0-17.835,0.7-26.753-1.049
		c7.169-4.721,15.213-0.699,20.982-1.924c-4.371,0.351-10.491-0.874-16.611-0.35c-5.42,0.35-8.218-3.497-6.994-8.567
		c1.225-4.722-0.699-8.044-2.273-12.065c-3.322-8.568-5.595-17.835-1.049-26.928c5.596-11.017,7.869-22.906,9.967-34.972
		c2.099-12.415,9.442-23.081,15.213-34.097c7.344-14.164,7.519-13.989-2.623-25.704c-2.973-3.497-6.645-6.645-6.295-12.065
		c3.497-4.022,6.645-2.973,9.093,0.874c5.771,9.617,15.038,12.065,25.18,12.939c2.447,0.175,4.546-0.35,6.47-1.749
		c10.491-6.819,10.316-13.114-0.875-18.884c-6.645-3.497-12.939-8.043-20.808-8.218c-2.099,0-3.847-1.399-4.546-3.498
		c0.874-4.371,4.546-5.071,7.868-6.12c7.693,1.399,15.388,2.623,23.256,2.098c12.065-0.699,20.283-6.295,23.956-16.961
		c4.371-12.765,1.748-24.305-7.17-31.824c-2.098-1.923-5.245-2.798-5.945-5.945c1.399-2.623,4.372-4.721-0.35-7.519
		c-8.218-4.896-8.742-9.442-2.973-16.961c1.399-1.749,3.322-2.972,5.421-5.77c-8.743,0.524-10.491-4.896-11.365-11.016
		c-0.175-1.749-0.35-3.497-1.225-4.896c-4.896-8.043-4.896-8.043,4.197-12.24c4.721,0.7,8.917,2.623,12.939,4.896
		c0.699,8.568,6.294,6.819,11.715,5.246c12.765,3.847,23.605,11.366,35.146,17.835c7.868,6.819,15.037,14.338,22.382,21.682
		c8.917,8.743,12.589,19.759,13.114,32.174c1.224,29.551-1.574,58.752-10.492,86.904c-10.666,33.747-26.928,64.872-49.659,92.149
		c-5.07,6.12-11.016,11.191-18.359,14.339c-6.47,2.798-8.918,7.344-8.918,14.338c0,7.519,1.049,15.038,0.35,22.557
		c-7.344,2.973-7.519-3.147-9.268-7.344c-0.35-1.05,0-2.273,0.175-3.322c0.35-3.322,3.847-8.743-1.049-9.093
		c-3.497-0.35-9.268,2.973-9.442,9.268C253.718,503.712,255.291,508.083,250.396,509.657z"/>
	<path fill="#EFCBB4" d="M265.782,198.411c-1.224,3.498-4.896,4.546-8.567,6.995c6.12,1.399,8.393,4.196,7.868,10.316
		c-0.699,8.918,6.12,9.792,13.114,8.918c-0.175,4.896-4.721,5.071-6.819,7.519c-5.945,6.47-5.07,11.715,2.623,15.912
		c2.099,1.224,5.596,1.749,5.07,5.071c-0.699,3.322-4.021,2.798-6.47,3.147c-2.797,1.923-5.595,0.35-8.393-0.35
		c-24.83-4.896-39.518,14.338-34.272,37.07c1.399,6.295,5.246,11.715,8.044,17.311c-2.273,1.749-4.722,3.322-6.994,5.071
		c-4.722,2.623-9.268,5.596-14.164,7.869c-4.371,2.623-2.973,6.819-2.098,10.142c2.798,12.24,0.35,22.032-9.268,31.299
		c-11.716,11.366-22.906,23.955-28.852,39.868c-1.749,4.371-4.896,7.868-7.868,11.54c-2.973,3.673-4.896,7.694-5.945,12.415
		c-2.273,10.666-5.596,13.289-16.437,13.114c-5.246,0-8.918,6.295-14.688,3.322c-5.42-1.749-10.841-4.021-16.437-5.596
		c-6.47-1.748-9.967-4.896-14.862-11.715c2.972,8.567,9.617,13.639,18.359,16.087c6.645,5.42,4.722,18.534-3.322,22.031
		c-19.234-9.617-34.972-22.906-45.113-41.965c4.197-5.596,9.967-11.191,15.213-13.639c10.142-4.547,18.011-12.939,27.452-16.787
		c19.234-7.868,31.999-21.682,43.89-37.069c5.771-7.169,11.365-14.513,14.513-23.606c1.924-5.945,7.345-9.092,13.465-9.967
		c6.119-0.875,9.092-4.372,10.666-9.967c3.847-12.765,9.093-25.004,13.813-37.245c3.322-8.218,4.546-14.513,0.874-22.032
		c-1.224-5.595-0.874-11.366-1.224-17.136c2.273-6.994-0.35-10.841-6.994-14.338c-6.994-3.847-13.989-6.47-21.857-7.694
		c-3.847-0.524-7.344-1.574-3.497-6.47c2.448-2.972,0.699-5.42-0.524-8.043c1.923-1.574,3.847-3.147,5.771-4.722
		c6.47-1.049,10.666-6.294,16.786-8.393c14.862-5.071,28.852-2.797,43.015,2.273C249.696,192.117,257.74,195.264,265.782,198.411z"
		/>
	<path fill="#E09065" d="M272.602,511.405c-2.447-9.092-1.573-18.534-1.748-27.802c-0.175-5.071,2.798-8.743,6.819-10.142
		c17.136-6.12,25.704-20.983,35.321-34.272c7.868-10.841,15.037-22.557,21.157-34.447c3.672-6.994,4.896-15.212,8.044-22.731
		c13.988-33.223,17.66-68.019,16.262-103.69c-0.525-14.513-7.869-25.354-18.71-34.622c-5.596-4.721-11.017-10.142-14.339-16.961
		c21.508,11.715,40.218,27.627,59.277,42.665c3.497,2.623,6.295,6.12,9.967,8.568c7.519,5.071,7.868,11.715,4.896,19.06
		c-12.765,32.349-26.229,64.522-38.644,97.046c-8.567,22.381-17.835,44.239-31.998,63.473c-7.345,10.841-17.312,19.06-27.978,26.403
		c-0.699,0.35-1.399,1.049-2.273,1.224c-11.365,3.848-15.562,12.24-11.89,23.432c0.874,2.797,2.623,3.497,5.245,3.322
		c5.771,0,11.541-0.175,17.311-0.175c2.798,15.736,0.7,31.299-0.699,46.861c-0.35,4.896-6.12,2.623-9.442,3.497
		c-2.622-3.147-1.049-6.645-0.874-10.142c0.699-12.765-5.42-22.906-17.311-28.502C275.924,521.197,270.854,518.575,272.602,511.405z
		"/>
	<path fill="#1593B4" d="M452.88,214.148c-15.912-15.912-30.95-33.048-52.458-42.141c-2.797-1.749-5.245-3.672-7.693-5.77
		c-4.021-3.672-6.12-7.869-1.224-12.59c9.792-2.798,15.563-11.541,24.654-15.562c3.497-1.574,6.819-2.973,10.667-2.623
		c2.798,0.35,5.07,1.574,5.944,4.372c0.875,2.972-0.699,4.896-3.147,6.469c-3.497,2.099-6.994,4.372-9.616,7.519
		c-2.623,3.147-4.022,7.694-0.875,11.191c2.798,2.973,5.771,1.049,7.869-1.923c6.47-6.819,14.688-8.918,23.78-8.918
		c4.896,0,9.617-0.175,10.142-6.819c3.322-9.792,8.918-12.065,16.786-5.945c19.584,15.212,27.104,35.846,25.529,60.326
		c-0.35,4.546-4.021,7.693-5.945,11.366c-4.546,8.568-12.064,14.688-18.534,21.857c-2.099,2.273-5.071,2.623-8.044,1.399
		C465.469,228.312,460.923,219.744,452.88,214.148z"/>
	<path fill="#CE8C6B" d="M438.891,379.389c0.7,17.136-7.693,26.928-20.982,33.397c-5.421,2.798-11.191,4.896-16.437,8.044
		c-6.994,4.021-13.114,1.573-18.535-2.448c-5.245-3.847-3.147-9.442-1.398-14.513c4.196-12.241,7.519-25.005,15.037-36.021
		c6.47-9.268,18.011-12.939,28.502-9.442C432.946,361.378,438.716,370.82,438.891,379.389z"/>
	<path fill="#298CA4" d="M470.365,235.131c4.021,0.35,6.994-0.524,9.442-4.372c5.245-7.868,12.59-13.639,17.835-21.857
		c5.246-8.393,4.722-16.262,3.497-24.13c-2.272-16.087-10.666-29.201-22.381-40.217c-7.52-6.995-13.465-5.596-15.563,3.497
		c-12.59-4.546-24.306-3.322-34.972,4.896c-0.874,0.699-1.748,1.399-2.623,2.273c-5.42,5.596-4.896,7.694,2.623,9.967
		c-3.147,5.421-7.344,4.896-11.54,1.749c-2.973-2.273-1.574-13.464,2.098-15.212c3.847-1.749,5.596-5.945,9.617-6.994
		c1.749-0.525,3.322-1.399,2.798-3.498c-0.524-2.273-2.273-3.147-4.371-3.497c-4.022-0.524-7.17,0.7-10.316,3.147
		c-5.945,4.546-12.24,8.393-18.186,12.939c-2.099,1.574-4.371,1.224-6.645,1.399c-1.225-1.923,0.699-2.623,1.573-3.672
		c11.541-10.841,24.306-18.71,40.742-19.06c1.573,0,3.147-1.049,4.896-1.574c7.52,0.7,15.038,1.049,22.382,2.448
		c28.502,5.595,39.518,26.753,43.89,55.254c0.699,5.071,0.175,10.317,0.175,15.563c-2.973,6.12-6.12,12.24-10.842,17.486
		c-5.245,3.322-7.519,9.442-12.064,13.639c-0.524,0.7-1.225,1.399-1.749,2.273c-0.699,0.524-1.398,1.224-2.098,1.749
		C474.737,240.202,471.065,241.251,470.365,235.131z"/>
	<path fill="#1690AD" d="M335.551,497.417c-3.673,23.431-6.995,46.862-8.918,70.468c-0.35,3.672-1.924,4.721-4.896,1.748
		c-3.672-3.497-6.12-7.169-5.77-12.765c0.874-13.813,1.398-27.977-1.05-41.615c-1.923-10.842,8.394-11.716,12.59-17.486
		C330.13,497.592,332.928,497.592,335.551,497.417z"/>
	<path fill="#3B8E37" d="M482.606,247.196c4.721-0.35,6.645-5.246,10.491-6.819l0,0c0,6.12,5.071,8.394,9.442,9.967
		c4.896,1.924,6.295,4.896,6.819,9.792c1.049,8.568,2.798,17.136,4.371,25.704c0.35,1.574,0,2.798-1.398,3.847
		c-18.186-1.224-22.557-15.737-27.803-29.201C482.955,256.289,475.437,252.617,482.606,247.196z"/>
	<path fill="#F6F6F6" d="M325.059,495.494c-3.322,2.447-8.043,2.797-10.491,6.645c-4.546,2.797-9.617,3.847-14.862,3.672
		c-2.623,0-6.47,1.224-6.994-2.798c-0.525-3.847-1.749-8.219,3.322-10.491c6.644-2.973,13.113-6.295,19.934-8.568
		c5.245-1.749,9.792,1.924,12.939,5.421C332.053,492.696,325.759,493.046,325.059,495.494z"/>
	<path fill="#418943" d="M522.823,296.332c0.175-11.541-5.07-21.857-6.295-33.223c-0.524-4.721-0.175-5.246,4.722-4.196
		c14.338,2.798,17.66,13.639,20.283,25.529c0.699,2.797-0.175,4.196-2.448,5.595c-4.371,2.448-7.693,6.12-10.841,9.792
		C525.446,300.178,523.871,298.43,522.823,296.332z"/>
	<path fill="#BC8B7D" d="M300.929,483.778c5.071-7.519,12.765-12.415,19.409-18.535c2.798-2.623,4.896-6.47,8.568-8.043
		C324.01,470.839,315.791,480.98,300.929,483.778z"/>
	<path fill="#318397" d="M470.365,235.131c1.573,4.022,5.071,3.497,8.219,3.497c-3.673,4.022-6.47,3.497-9.442-0.874
		c-5.246-7.869-10.842-15.737-16.437-23.431C462.847,217.646,468.092,225.165,470.365,235.131z"/>
	<path fill="#EFCBB4" d="M290.438,208.728c-1.398,1.749-1.574,6.295-4.721,4.372c-3.498-2.099-8.743-1.749-10.492-6.12
		c-1.049-2.623,1.749-2.973,3.672-3.497C282.919,204.531,286.941,206.105,290.438,208.728z"/>
	<path fill="#2B7483" d="M393.428,151.025c-0.524,1.224-1.049,2.448-1.573,3.672c-3.497,4.196-0.874,7.868,1.923,9.967
		c2.973,2.098,4.547,4.721,6.646,7.344c-2.448-1.049-4.896-1.749-7.17-2.973C384.336,164.14,384.336,156.795,393.428,151.025z"/>
	<path fill="#F1D1BC" d="M176.081,199.985c9.617,3.497,4.546,7.693-1.225,12.764c13.814-2.098,23.082,5.246,33.224,9.617
		c4.721,2.098,5.07,9.442,1.398,12.939c-3.672-0.35-5.07-3.672-7.344-5.595c-6.994-6.12-14.688-10.492-24.48-9.617
		c-12.239,1.049-23.431,10.316-25.879,21.507c-2.098,9.268,3.497,22.557,12.065,28.152c10.666,6.995,23.081,6.295,33.397-1.398
		c5.421-4.022,7.869-10.667,13.814-14.164c5.77,5.42,6.295,13.639,1.748,19.409c-1.573,1.923-4.021,4.372-3.847,6.645
		c0.175,13.989-10.666,24.13-12.765,37.245c-0.699,4.546-3.672,6.645-8.568,7.169c-7.868,0.7-12.939,4.896-16.087,12.415
		c-6.819,16.262-17.835,29.551-30.774,41.091c-8.568,7.694-18.71,12.765-28.502,18.535c-8.393,4.896-15.037,12.765-25.704,13.988
		c1.05,8.743-10.666,6.295-11.89,13.465c-0.35,2.272-2.973,0.175-4.372-0.175c-10.841-15.038-12.59-32.874-15.037-50.185
		c-1.399-9.792-1.574-19.759-2.099-29.551c-0.35-5.77-2.273-9.092-8.743-6.12c-1.049,0.525-2.098,0.875-3.322,1.049
		c-7.868,1.923-13.813-1.049-14.688-7.694c-0.874-6.294,4.196-11.89,11.54-12.24c2.973-0.175,6.47,1.049,7.17-2.448
		c0.699-3.147-3.497-3.147-5.421-4.546c-4.196-2.973-9.268-5.421-8.568-11.891c0.524-4.021,2.623-7.169,6.819-8.043
		c6.12-1.398,11.191-0.175,15.737,4.546c3.147,3.322,3.497,10.841,9.093,9.792c4.371-0.699,4.371-7.519,7.169-11.366
		c9.967-13.639,19.759-27.277,36.896-33.048c3.847-1.224,5.944-4.546,8.043-7.694c13.464-19.934,30.075-36.72,51.408-48.26
		C169.612,204.706,172.759,202.083,176.081,199.985z"/>
	<path fill="#EEC8B1" d="M115.406,465.942c6.295-4.196,2.273-12.414,6.47-17.485c-1.573-1.049-3.147-2.099-4.721-3.147
		c3.847-4.371,8.742-1.748,13.114-1.748c3.847-0.351,8.043,1.049,10.491-3.673c0.874-1.573,2.798-1.398,4.721-1.049
		c9.442,1.749,14.164-1.398,15.213-11.19c0.524-4.722,2.099-8.044,5.071-11.366c3.497-3.847,6.819-8.219,8.742-12.939
		c6.645-16.786,18.36-29.726,30.775-41.616c8.567-8.218,8.918-16.787,7.169-26.753c-0.874-4.896-3.322-10.316,2.623-14.163
		c2.973,3.672,2.623,7.868,1.748,12.24c1.399,5.945,5.596,9.967,9.792,14.164c10.142,10.142,9.617,9.967,2.623,21.857
		c-6.12,10.492-12.065,21.333-16.437,32.524c-2.798,7.344-1.748,15.912-4.371,23.78c-1.225,3.497-1.399,7.693-3.847,10.491
		c-7.17,8.918-3.673,18.71-3.498,28.327c0,2.448,1.924,3.497,3.498,4.721c3.147,2.448,4.546,5.246,1.398,8.918
		c-1.924,2.273-2.099,4.896-0.35,7.169c1.923,2.448,4.546,1.749,7.169,1.399c6.819-0.875,13.289,0.699,19.759,1.923
		c0,0.875-0.175,1.574-0.175,2.448c-8.918,0-17.66,0-26.578,0C173.808,489.024,143.383,481.68,115.406,465.942z"/>
	<path fill="#ECC6B4" d="M198.988,623.664c-7.344-11.191-7.344-24.306-7.869-36.895c-0.524-14.863-0.35-29.551-1.573-44.414
		c-0.524-6.12,1.398-12.065,4.021-17.66c0.524-1.225,1.749-2.623,2.973-2.798c2.273-0.524,2.623,1.748,3.147,3.322
		c6.47,14.862,12.59,29.9,19.409,44.763c1.398,3.147,0.699,5.071-1.224,6.82c-2.448,2.272-3.147,4.896-3.147,7.868
		c0.175,4.896,0.175,10.316,5.245,13.114c4.547,2.623,8.918,0.35,12.939-2.273c2.448-1.573,4.722-3.322,6.994-5.07
		c6.47-4.896,12.939-9.093,21.683-9.617c8.918-0.524,17.485-3.497,26.054-6.645c21.857-8.219,23.256-7.694,37.943,10.666
		c-1.923,3.672-5.245,2.448-8.043,2.099c-16.437-1.924-31.124,2.272-44.238,12.064c-13.464,9.967-29.376,15.388-43.54,23.956
		c-5.42,3.322-12.415,3.147-18.885,1.748C207.031,623.839,203.009,624.014,198.988,623.664z"/>
	<path fill="#EBC6B2" d="M272.602,511.405c1.924,5.421,4.722,9.442,11.191,10.667c8.043,1.573,16.611,15.212,16.786,25.529
		c0,4.896-1.05,9.617-1.574,14.513c-12.239,5.246-25.179,8.568-38.118,12.065c-8.219,2.272-12.065-2.798-14.863-8.743
		c-7.868-16.437-15.387-33.048-23.081-49.834c8.918-3.847,18.535-3.322,27.278-6.12c0.35-0.524,1.049-1.05,1.049-1.399
		c-1.398-11.016,3.147-18.185,13.813-21.682c2.798,3.847,5.246,7.519,1.574,13.464C263.86,504.936,267.706,509.133,272.602,511.405z
		"/>
	<path fill="#1193BA" d="M227.49,643.248c1.748-0.874,4.021,0.175,5.42-1.924c3.847-3.672,6.645-1.923,8.394,2.099
		c1.049,2.273,1.398,4.896,2.273,7.344c2.447,6.819,9.267,6.994,14.688,8.568c4.196,1.224,8.219,2.448,11.891,4.896
		c3.672,3.497,10.666,5.071,7.169,12.765c-15.038-0.175-29.551,5.945-44.764,4.197c-4.721-0.525-8.218,2.447-12.065,4.196
		c-11.016,5.07-16.262,4.021-19.584-4.021c-4.896-11.891-1.748-21.508,8.394-25.18c4.546-1.749,9.617-2.623,12.24-7.519
		C222.768,645.871,224.167,643.423,227.49,643.248z"/>
	<path fill="#E4B7A6" d="M312.82,618.243c-12.065-1.398-24.306-1.573-36.896-1.224c15.737-7.693,26.753-25.354,48.086-21.333
		c4.021,0.699,9.093,1.749,11.891-3.147c2.098-3.847,0.175-7.344-2.448-10.316c-2.973-3.322-0.35-6.645,0-9.967
		c1.224-13.813,2.798-27.802,4.196-41.616c1.749-2.098-0.524-5.245,2.273-7.169c3.672,1.399,3.497,5.071,4.196,8.044
		c5.071,24.305,4.196,48.435-0.175,72.74c-0.699,3.497-1.924,6.645-3.672,9.792c-2.798,5.071-6.295,8.043-12.59,5.945
		C322.786,618.243,317.715,619.468,312.82,618.243z"/>
	<path fill="#CE8A69" d="M312.82,618.243c4.021,0,8.043-0.175,12.239,0c3.147,0.175,8.568,1.574,8.918,0.699
		c2.099-4.721,6.12-8.043,7.169-13.639c4.722-26.578,5.246-53.156-0.874-79.734c-0.874,1.923-1.748,3.497-2.623,5.245
		c0.35-3.672,0.524-7.519,1.05-11.19c0.35-2.099-0.7-5.246,2.622-5.771c2.448-0.35,4.197,1.574,5.945,3.147
		c3.672,3.497,5.945,8.044,6.994,12.765c6.295,25.704,4.197,51.408-1.573,76.763c-2.448,10.841-6.819,14.163-18.36,14.688
		C326.983,621.565,319.814,620.866,312.82,618.243z"/>
	<path fill="#CF9373" d="M198.988,623.664c2.099-1.574,3.322-3.672,7.344-2.448c10.841,3.672,20.633,0.524,31.125-4.721
		c17.485-8.918,33.572-20.459,51.407-28.677c8.568-4.021,18.36-4.896,27.803-2.798c3.147,0.699,6.12,1.049,9.093-0.35
		c2.272,1.398,2.972,4.196-0.176,3.672c-20.633-4.196-33.047,11.016-48.435,19.234c-18.36,9.792-36.72,19.934-57.004,25.354
		C210.178,635.729,204.583,632.757,198.988,623.664z"/>
	<path fill="#0F271D" d="M241.303,652.865c-0.524-2.099-1.749-4.371-1.574-6.47c0.35-5.771-2.797-5.771-6.994-5.071
		c-0.175-2.447,1.225-4.721,3.322-3.672c6.295,2.973,6.645-2.273,8.568-5.596c0.699,0.525,1.398,1.225,1.573,2.099
		c0.175,8.394,5.246,12.065,12.765,13.639c9.093,3.672,18.885,4.896,28.152,8.044c4.021,2.272,6.12-1.225,8.918-2.798
		c2.622-2.623,6.119-3.497,9.092-5.421c5.596-2.973,11.017-5.771,12.765-12.939c1.05-4.021,4.896-4.546,8.568-3.147
		c4.196,1.749,8.567,3.147,13.114,4.372c4.546,2.098,10.841,1.573,12.064,8.393c-1.398,0.699-1.748,1.924-1.573,3.322l-0.524,0.524
		c-1.924,1.574-4.021,1.574-6.295,1.225c-1.924-0.524-4.021-1.05-5.596-2.099c-5.42-3.497-9.093-2.973-14.163,1.924
		c-8.044,7.868-18.535,12.765-28.502,18.185c-3.497,1.749-7.169,2.623-10.841,1.399C269.63,663.531,255.116,659.335,241.303,652.865
		z"/>
	<path fill="#197C13" d="M305.65,649.543c-2.272,2.623-6.645,1.748-8.567,5.07c-5.071-2.973-6.994,2.798-10.841,3.497
		c-1.05-0.874-2.448-2.797-3.147-2.622c-9.268,2.447-16.262-4.022-24.48-5.945c4.021-2.623,0.874-4.021-0.874-5.945
		c-2.623-3.147-9.792-2.973-8.219-8.568c1.574-5.42,7.345-2.622,11.366-2.973c5.596-0.524,7.169-5.245,9.967-8.742
		c5.596,2.623,11.541,1.923,17.485,2.098c6.47-0.175,11.366,3.498,16.437,6.645c2.448,1.574,4.722,3.848,2.798,7.17
		c-1.749,3.147-4.721,2.798-7.693,1.923c-3.147-0.699-5.945-3.322-11.191-3.147C295.509,642.724,301.628,644.646,305.65,649.543z"/>
	<path fill="#2199B5" d="M218.572,514.902c5.245,14.688,10.666,29.201,15.737,43.89c0.699,1.924,4.371,5.421-1.225,6.645
		c-3.497,0.874-7.169,2.448-9.442-2.623c-6.294-14.862-12.939-29.551-19.409-44.413c-1.049-4.547,0.176-8.044,4.722-9.792
		C214.025,508.258,216.298,511.58,218.572,514.902z"/>
	<path fill="#358E38" d="M305.65,649.543c-6.994-0.35-10.666-7.519-17.66-8.044c-1.748-0.175-1.398-3.497-0.874-5.42
		c0.699-2.448,2.623-1.574,4.196-0.875c3.497,1.399,6.819,2.798,10.142,4.372c1.924,0.874,4.021,1.398,5.246-1.05
		c1.224-2.447-0.524-3.672-2.448-4.721c-5.246-2.798-10.491-5.596-15.737-8.394c12.939-1.748,25.529,1.749,38.294,3.147
		c3.847,1.574,7.693,0.7,11.715,0.35c2.623-0.175,4.547,0.7,4.197,3.848c-0.175,2.447,1.573,6.645-3.847,4.721
		c-4.372-1.398-8.743-2.623-12.939-4.371c-2.798-1.225-6.12-1.399-6.295,1.573C319.464,644.297,311.595,645.871,305.65,649.543z"/>
	<path fill="#3A903B" d="M271.203,623.314c0.35,6.47-4.896,11.89-11.016,11.19c-2.273-0.175-4.547-0.524-6.819-0.524
		c-0.7,0-1.749,0.524-2.099,1.049c-0.699,1.399,0.699,2.623,1.398,2.623c4.896-0.35,5.945,4.372,9.093,6.295
		c1.574,1.049,5.421-0.699,4.722,2.973c-0.525,2.798-3.497,2.448-5.945,2.448c-0.524,0-1.225,0-1.749,0.175
		c-13.813-4.021-13.813-4.021-14.163-17.661c5.596-2.797,11.19-5.77,16.786-8.567C264.734,621.915,267.881,620.691,271.203,623.314z
		"/>
	<path fill="#F1F1F2" d="M206.156,501.089c-1.398-0.874-4.021-0.524-3.847-2.798c0.175-2.272,2.099-1.923,3.847-1.923
		c11.366,0.524,22.557,1.049,33.922,1.398c2.273,0.175,4.197,0.524,4.197,3.147c0,2.448-1.924,3.322-4.021,3.672
		c-7.17,1.225-14.164,3.147-21.508,3.147C213.85,506.859,208.954,505.985,206.156,501.089z"/>
	<path fill="#D9BEB5" d="M246.724,576.627c-0.351,0.7-0.351,1.399-0.7,1.749c-6.645,4.021-12.239,9.792-19.584,12.59
		c-3.147,1.224-4.021-1.049-4.196-3.672c-0.699-6.645,4.371-9.792,8.568-12.939c3.847-2.973,8.742-2.273,13.114-0.699
		C244.975,574.005,245.674,575.578,246.724,576.627z"/>
	<path fill="#43743D" d="M197.588,654.438c-7.519,1.924-8.742-1.049-5.42-7.344c0.175-0.175,0.524-0.524,0.524-0.699
		c1.049-11.017,5.246-13.289,14.688-6.47c2.973,2.098,8.394,0.699,12.765,1.049c0.525,4.896-3.672,5.421-6.645,6.645
		C208.255,650.067,202.834,652.341,197.588,654.438z"/>
	<path fill="#326732" d="M339.048,637.478c5.944-0.35-1.05-4.721,1.923-6.295c0.35-0.175-2.098-0.524-3.322-0.874
		c-3.497-0.699-7.519,1.224-10.666-1.749c5.771-0.524,11.716-0.35,16.961-2.098c5.596-1.749,7.344,0.524,8.743,4.896
		c1.049,2.973,1.573,6.12,2.798,8.918c1.923,4.721-1.574,3.672-4.022,3.847C348.315,640.101,343.244,639.751,339.048,637.478z"/>
	<path fill="#132224" d="M197.588,654.438c3.673-7.344,12.24-6.12,18.011-9.967c1.573-1.049,3.672-1.573,4.546-3.497
		c3.672-3.147,6.295-2.973,7.345,2.099c-1.225,1.573-2.448,2.973-3.673,4.546c-2.447,2.273-5.42,4.021-8.567,5.071
		c-7.169-0.874-12.065,4.371-17.661,7.169C194.791,658.286,197.239,656.362,197.588,654.438z"/>
	<path fill="#1D2A3D" d="M206.156,501.089c4.546,1.574,8.918,3.497,12.59,6.645c-3.672,2.273,0.524,4.896-0.35,7.169
		c-2.973-1.923-5.771-3.672-8.743-5.595c-3.497-0.699-8.393,1.224-8.567-4.896C203.533,504.236,205.282,503.362,206.156,501.089z"/>
	<path fill="#497C96" d="M201.086,504.411c1.923,3.322,6.119,2.623,8.567,4.896c-3.322,2.098-4.546,5.595-5.421,9.268
		c-2.272-4.022-4.721-7.869-6.469-11.891C195.316,501.089,199.337,504.062,201.086,504.411z"/>
	<path fill="#152E29" d="M197.413,660.034c4.022-6.819,9.617-10.142,17.661-8.743c0.35,1.225,0,2.623-1.225,2.798
		c-7.169,1.574-11.89,6.295-16.262,11.541c0-1.225-0.175-2.623-0.175-3.847C197.588,661.083,197.588,660.559,197.413,660.034z"/>
	<path fill="#488547" d="M549.226,249.295c-5.07,9.092-12.765,6.994-20.108,4.371c-3.847-1.398-9.617-2.972-10.142-5.595
		c-0.874-3.847,5.246-5.071,7.868-7.869c9.442-10.142,21.683-5.42,32.698-6.47c1.924-0.175,3.848,1.049,3.147,2.973
		c-1.573,3.497,0.525,8.743-4.196,10.667C555.521,248.42,552.198,248.595,549.226,249.295c1.574-6.12-0.699-8.918-6.994-8.393
		c-3.497,0.175-8.568,0-8.568,3.672c0.175,4.546,5.246,2.623,8.394,2.798C544.68,247.372,547.303,247.021,549.226,249.295z"/>
	<path fill="#448A3E" d="M493.097,240.377c1.573-2.098,3.147-4.021,4.721-6.12c10.317-13.29,10.317-13.115,23.781-3.323
		c1.923,1.399,2.973,2.273,1.224,4.721c-5.245,6.82-13.464,8.918-22.032,5.945C498.168,240.727,495.545,240.727,493.097,240.377
		L493.097,240.377z"/>
	<path fill="#4F7A4D" d="M556.395,285.665c-4.196,0-11.365-10.316-10.316-13.464c0.875-2.273,2.623-1.749,4.197-1.049
		c5.77,2.448,10.491,7.344,17.485,5.945c1.224-0.175,2.099,1.224,1.748,2.273c-0.175,0.875-1.049,2.273-1.923,2.448
		C563.74,283.392,559.717,284.616,556.395,285.665z"/>
	<path fill="#3A818E" d="M531.915,160.292c-4.371,6.295-11.716,7.169-18.011,9.967l-0.699-0.175l-0.874,0.35
		c-4.372-4.196-5.246-10.316-7.694-15.562c0.176-0.175,0.7-0.524,0.7-0.524C512.856,162.565,522.648,159.943,531.915,160.292z"/>
	<path fill="#4D6951" d="M546.253,260.835c5.945-2.273,9.093-7.519,14.164-4.022c2.098,1.399,2.098,6.995,0.524,7.869
		C556.045,267.48,552.548,262.409,546.253,260.835z"/>
	<path fill="#318397" d="M482.606,234.607c3.322-5.071,5.245-11.541,12.064-13.639C491.173,226.214,488.026,231.459,482.606,234.607
		z"/>
	<path fill="#1A91AF" d="M531.915,160.292c-4.371,2.098-9.792,0.525-13.988,4.546c-1.574,1.574-4.896,0-6.295-2.798
		c-1.574-3.147-2.973-6.47-6.995-7.169c-2.098-3.497-4.371-6.819-6.469-10.316c-1.574-4.022-4.022-7.344-7.869-9.617
		c-4.021-2.448-5.246-5.945-1.924-9.967c0.7-0.524,1.399-0.874,2.099-1.224c7.869-8.918,19.06-14.338,26.753-23.606
		c0.875-2.798,0.7-5.77,1.924-8.568c2.973-4.896,8.393-5.945,13.114-7.869c4.546-1.749,7.344,1.399,8.219,5.246
		c2.622,11.891,3.322,23.956,6.119,35.846c0.7,3.147-1.398,6.12-3.147,8.743c-1.923,2.797-2.622,5.77-2.622,8.917
		C540.484,149.976,536.811,155.571,531.915,160.292L531.915,160.292z"/>
	<path fill="#268BA4" d="M519.151,99.967c0.175,8.218-8.568,8.743-12.765,12.939c-3.672,3.847-9.093,6.12-11.54,11.715
		c-0.7,1.923-2.448,0.35-3.848,0c-2.098-6.47,2.099-10.142,5.945-14.164c1.924-1.923,5.421-4.196,2.798-6.994
		c-2.973-3.147-5.945-0.175-8.044,2.099c-5.595,5.246-6.119,11.016-1.923,19.759c-2.273,3.497-2.448,6.645,2.273,8.218
		c5.42,1.749,6.47,6.12,6.295,11.016c-7.694-6.47-14.688-13.989-24.83-16.787c-2.798-0.699-4.896-2.098-4.547-5.42
		c1.225-7.519,2.273-15.038,6.295-21.507c9.093-14.863,33.224-23.956,49.311-19.06c4.896,1.574,8.218,0,11.89-2.973
		c4.021-3.322,6.645-8.218,12.24-10.667c-1.398,4.896-2.973,9.093-4.021,13.464c-1.749,6.819-1.924,13.639,1.573,20.283
		c5.421,10.317,5.421,20.983,1.399,31.824c-2.623,3.672-2.973,9.617-8.918,10.491c0.175-2.623-0.524-5.945,0.699-7.693
		c5.771-6.82,5.246-13.639,2.973-21.683c-2.099-7.344-2.448-15.387-3.322-23.081c-0.874-6.645-3.322-9.268-9.617-4.546
		c-3.147,2.448-7.693,2.623-10.316,6.12c-1.049,0.35-2.273,0.175-3.322,0c-2.448-0.524-4.896-0.524-5.246,2.448
		c-0.35,3.672,2.448,3.672,5.246,3.672C516.877,99.617,517.927,99.617,519.151,99.967z"/>
	<path fill="#3A818E" d="M538.56,144.206c3.147-3.322,4.721-8.043,8.918-10.491c-1.05,11.366-5.246,20.808-15.737,26.403
		C533.489,154.697,538.735,150.675,538.56,144.206z"/>
	<path fill="#2585AC" d="M197.763,665.63c1.924-9.442,10.842-10.491,17.486-14.339c2.798-1.398,5.07-4.021,8.743-3.497
		c-0.525,8.394-8.219,8.044-13.29,10.142c-8.567,3.497-12.589,10.667-8.567,18.885c5.596,11.541,5.771,11.891,20.808,5.071
		c4.547-2.099,8.743-2.973,13.289-2.623c14.164,1.224,27.628-5.945,41.966-3.672c2.273-2.273,5.246-2.273,8.044-2.273
		c12.764-0.175,25.528-0.175,38.293,0c3.147,0,6.47,0.35,9.268,1.924c4.371,2.447,9.093,5.77,12.939,0.175
		c3.847-5.421,3.322-11.541-0.699-16.961c-2.448-3.322-6.819-6.12-3.147-11.191c2.273,0.35,4.371,0.524,6.645,0.874
		c4.371,2.973,5.945,6.819,5.771,12.24c-0.175,7.344,0.699,14.863,1.224,22.207c-7.344,2.448-14.163,7.693-22.382,3.672
		c-0.699-5.245-3.847-7.169-8.918-7.169c-31.648-0.524-63.298,1.398-94.771,4.196c-3.322,0.35-6.295,1.749-8.394,4.196
		c-2.973,3.673-6.47,4.197-10.841,4.197c-14.863-0.35-15.563-0.875-13.464-15.038C198.288,672.799,195.141,669.127,197.763,665.63z"
		/>
	<path fill="#9D806C" d="M213.325,700.426c-2.623,6.12-4.721,14.164-9.268,13.814c-4.896-0.35-4.021-8.918-5.595-13.814
		c-0.875-2.797,1.398-3.847,3.497-2.797C205.632,699.202,210.528,696.929,213.325,700.426z"/>
	<path fill="#967E71" d="M355.31,696.404c-0.7,3.847-1.225,9.967-6.645,10.316c-3.673,0.175-6.819-5.595-6.645-9.792
		c0.35-5.944,6.645-5.07,10.666-5.944C356.883,689.935,355.659,693.257,355.31,696.404z"/>
	<path fill="#130C0C" d="M237.806,310.495c-10.491-7.693-14.514-27.452-8.219-40.917c6.295-13.289,19.759-19.234,35.496-15.737
		c2.448,0.524,4.896,1.574,7.344,2.273c20.459,13.464,23.606,36.545,6.47,51.233c-10.666,9.267-23.081,7.693-35.495,4.896
		C241.653,311.894,239.729,311.194,237.806,310.495z"/>
	<path fill="#ECAF6F" d="M216.823,333.051c-3.322-3.672-1.049-8.218-1.748-12.24c5.945,0.524,9.093-7.694,15.737-5.246
		c10.841,0.875,19.759,6.645,29.201,11.016c4.371,1.923,6.819,5.246,6.645,9.268c0,3.497-2.798,6.295-5.071,9.268
		c-7.344,9.617-15.737,3.847-22.906,3.147c-6.295-0.525-12.59-5.421-15.213-11.716C221.719,332.352,219.446,333.226,216.823,333.051
		z"/>
	<path fill="#16100E" d="M210.878,254.191c-9.617,18.01-22.731,24.83-38.993,21.857c-15.388-2.798-25.18-22.382-22.906-34.447
		c2.797-14.688,18.709-25.704,33.922-23.431c11.365,1.749,20.283,7.693,26.578,17.311
		C212.451,241.426,212.451,247.721,210.878,254.191z"/>
	<path fill="#32211C" d="M130.269,443.562c-3.847,4.721-8.743,1.049-13.114,1.748c-9.792-2.448-16.262-8.393-19.759-17.835
		c-0.7-2.099-1.574-4.547,0.524-5.596c2.973-1.574,2.623,1.748,3.497,3.322c3.672,6.994,8.918,11.891,16.961,13.639
		C122.574,439.539,126.947,440.239,130.269,443.562z"/>
	<path fill="#D3F5F2" d="M428.4,164.839c-3.147-0.175-6.47,4.721-9.268,0.175c-1.923-3.497,0.699-6.819,2.798-9.442
		c9.442-12.765,30.95-16.786,41.441-7.869c0.524,8.394-5.246,9.268-11.366,9.093C443.088,156.795,434.695,157.67,428.4,164.839z"/>
	<path fill="#210706" d="M393.428,396.175c1.749-6.645,6.645-10.142,12.939-8.917c7.52,1.574,8.568-2.973,9.093-7.869
		s3.672-11.541-4.896-13.289c-0.7-0.175-1.749-0.175-1.399-2.099c5.596-2.623,9.792-0.699,11.891,5.071
		c4.371,12.065-4.722,32.874-16.437,37.944c-6.819,2.973-10.666,1.049-12.59-5.945c3.847-3.146,10.841,0.176,13.114-6.644
		C400.773,392.853,397.975,401.945,393.428,396.175z"/>
	<path fill="#A58273" d="M393.428,396.175c4.896,2.448,5.771-3.497,9.093-4.372c1.924-0.524,4.021-1.399,5.771,0
		c2.273,1.924-0.175,3.498-1.049,5.071c-3.673,6.47-9.617,4.722-15.388,4.372C392.379,399.672,392.904,397.924,393.428,396.175z"/>
	<path fill="#239421" d="M529.991,290.561c-0.874-0.874-2.098-1.399-1.923-1.923c0.35-6.295-7.694-12.59-0.35-18.535
		c2.098-1.573-6.47-5.07,1.049-4.021c3.672,0.524,4.371,3.847,4.721,7.344c0.525,3.847-1.748,8.044,1.924,12.065
		C537.16,287.414,531.216,287.938,529.991,290.561z"/>
	<path fill="#EFB785" d="M121.001,263.633c9.967-0.7,25.005,8.393,28.327,16.961c1.573,4.197-5.596,11.715-11.191,9.967
		c-7.868-2.448-16.611-2.973-22.906-9.267c-3.322-3.323-7.693-6.295-5.596-12.59C111.734,262.584,116.63,264.158,121.001,263.633z"
		/>
	<path fill="#3D3124" d="M246.548,545.328c2.623,0.35,4.372,1.398,4.547,3.672c0.175,2.798-1.399,4.371-4.196,4.371
		c-2.273,0-3.848-1.049-3.848-3.672C242.876,547.251,244.276,545.678,246.548,545.328z"/>
	<path fill="#553B29" d="M297.257,546.377c-0.175,2.273-0.699,4.021-2.623,4.371c-2.272,0.351-3.847-0.874-4.196-3.146
		c-0.35-2.099,0.524-3.147,2.623-3.673C295.333,543.404,296.558,544.629,297.257,546.377z"/>
	<path fill="#138EB7" d="M342.895,647.27c-0.524,3.497,0.874,5.945,3.497,8.394c8.394,7.169,7.169,20.458-2.099,25.704
		c-2.623,1.573-4.721,1.748-6.819-0.7c-4.371-4.721-9.792-5.245-15.912-5.07c-14.513,0.175-29.025,0-43.539,0
		c-1.049-5.071-6.295-6.645-8.743-10.316c4.372-2.448,7.694,0.874,11.191,2.098c5.771,1.924,10.491,1.574,14.862-2.447
		c8.568-5.421,19.234-9.093,25.18-16.611C329.081,637.827,335.376,643.947,342.895,647.27z"/>
	<path fill="#2585AC" d="M295.333,664.931c-2.972,5.595-7.693,6.645-13.114,5.07c-4.371-1.224-8.567-3.147-12.939-4.721
		c-6.994-2.273-13.813-4.896-20.808-6.819c-3.322-0.875-5.771-2.448-6.994-5.596c13.289,1.923,25.18,8.567,37.944,12.24
		C284.842,666.679,290.088,667.378,295.333,664.931z"/>
	<path fill="#437F3D" d="M286.416,658.11c4.546-8.393,5.595-8.742,10.841-3.497C293.76,656.188,291.487,661.608,286.416,658.11z"/>
	<path fill="#2A931E" d="M549.226,249.295c-5.07-1.224-10.142,2.273-15.388,0c-1.923-0.7-4.196-0.524-5.07-2.798
		c-0.874-2.448,1.398-3.497,2.973-4.721c6.295-5.42,15.563-4.546,22.906,2.623C553.422,246.497,548.527,244.923,549.226,249.295
		L549.226,249.295z"/>
	<path fill="#BDEFED" d="M489.6,125.321c-5.071-0.7-5.771-4.372-5.421-8.394c0.699-7.344,4.196-13.114,10.842-16.786
		c2.797-1.574,5.944-1.574,7.693,1.399c1.923,3.147,1.398,6.47-1.749,8.393c-5.944,3.322-8.043,8.743-9.792,14.688
		C490.474,124.796,489.949,124.971,489.6,125.321z"/>
	<path fill="#9DE3E7" d="M519.151,99.967c-3.497,2.273-7.169,4.372-10.491-0.175c-1.749-2.448-1.749-5.42,0.699-7.869
		c3.847-3.672,6.819-0.524,9.617,1.574C520.724,95.771,519.325,97.869,519.151,99.967z"/>
	<path fill="#EEEDF5" d="M242.876,262.06c-1.398,8.393,3.147,11.19,9.617,11.016c8.044-0.35,9.268-6.12,8.394-12.939
		c15.213,3.322,22.032,11.366,22.032,24.83c-0.175,13.289-6.12,21.158-18.186,23.78c-14.338,2.973-24.655-1.049-29.376-11.89
		C229.412,283.567,232.035,269.928,242.876,262.06z"/>
	<path fill="#EFE8F1" d="M166.989,224.465c0.699,6.645,3.147,10.667,9.093,11.016c5.596,0.35,7.693-3.672,8.567-8.043
		c1.225-5.42,4.197-2.448,6.295-1.398c13.814,7.169,18.186,19.934,10.842,31.474c-8.568,13.464-26.403,16.611-39.518,6.819
		c-9.792-7.344-10.667-24.13-1.574-34.097C162.443,228.487,164.191,227.088,166.989,224.465z"/>
</g>
<path fill="#9E9A00" d="M-445.586,88.111c31.863,76.937,121.235,112.686,200.501,80.044c0.777-0.777,2.333-0.777,3.11-1.555
	l55.178,9.327v-48.184c38.079-41.965,51.289-102.581,28.752-156.981c-31.863-76.16-121.234-111.909-200.5-80.045
	C-437.815-76.643-477.446,11.174-445.586,88.111z"/>
<text transform="matrix(0.5996 0 0 1 -445.3333 61.563)"><tspan x="0" y="0" fill="#FFFFFF" font-family="'SourceHanSansCN-Normal-GBpc-EUC-H'" font-size="79.3444">乁</tspan><tspan x="79.344" y="0" fill="#FFFFFF" font-family="'zcool-gdh'" font-size="79.3444" letter-spacing="-31.689">(</tspan><tspan x="82.439" y="0" fill="#FFFFFF" font-family="'zcool-gdh'" font-size="79.3444"> </tspan><tspan x="122.111" y="0" fill="#FFFFFF" font-family="'HappyZcool-2016'" font-size="79.3444">˙</tspan><tspan x="201.456" y="0" fill="#FFFFFF" font-family="'zcool-gdh'" font-size="79.3444">ω</tspan><tspan x="280.8" y="0" fill="#FFFFFF" font-family="'HappyZcool-2016'" font-size="79.3444" letter-spacing="-31.689">˙</tspan><tspan x="328.406" y="0" fill="#FFFFFF" font-family="'zcool-gdh'" font-size="79.3444"> )厂</tspan></text>
</svg>
