<?xml version="1.0" encoding="utf-8"?>
<!-- Generator: Adobe Illustrator 19.0.0, SVG Export Plug-In . SVG Version: 6.00 Build 0)  -->
<svg version="1.1" id="图层_1" xmlns="http://www.w3.org/2000/svg" xmlns:xlink="http://www.w3.org/1999/xlink" x="0px" y="0px"
	 viewBox="0 0 410 336" style="enable-background:new 0 0 410 336;" xml:space="preserve">
<style type="text/css">
	.st0{fill:#2F2F2E;}
	.st1{fill:#B47A4E;}
	.st2{fill:#362E2D;}
	.st3{fill:#363636;}
	.st4{fill:#373737;}
	.st5{fill:#3C3C3C;}
	.st6{fill:#3A3A3A;}
	.st7{fill:#FFFFFF;}
	.st8{fill:#FFDCBD;}
	.st9{fill:#FFDCBE;}
	.st10{fill:#FFDCBC;}
	.st11{fill:#303030;}
	.st12{fill:#FEFEFE;}
	.st13{fill:#FDFDFD;}
	.st14{fill:#FDAB02;}
	.st15{fill:#58350E;}
	.st16{fill:#F5D9C1;}
	.st17{fill:#734B12;}
	.st18{fill:#889496;}
	.st19{fill:#9F8F80;}
	.st20{fill:#DF6675;}
	.st21{fill:#343027;}
	.st22{fill:#343434;}
	.st23{fill:#FEAB00;}
</style>
<g>
	<path class="st0" d="M91.7,328c-1.4-0.6-1.5-1.9-1.4-3.2c0.2-1.9,0.6-3.8,0.9-5.6c0.1-0.4,0.2-0.7,0.2-1.1
		c0.1-5.6,2.4-10.5,4.3-15.6c1-2.7,1.7-5.5,3.1-8c0.4-0.8,0.3-1.7-0.1-2.5c-2.8-7-5.3-14.1-7.2-21.4c-0.3-1.1-0.6-2.2-1.1-3.2
		c-0.9-1.6-1-3.5-1.4-5.2c0-0.2-0.1-0.4,0-0.6c0.9-2-0.2-3.6-0.7-5.4c-2.2-6.7-4.4-13.4-5.9-20.3c-0.5-2.3-0.9-4.7-1.4-7
		c-1.4-7.4-2.6-14.8-3.6-22.3c-1.2-8.4-2.2-16.8-2.5-25.3c0-0.4-0.1-0.8-0.1-1.1c-0.1-0.8-0.5-1.2-1.3-1.2c-4.9-0.3-9.1-2.7-13.3-5
		c-2.4-1.3-4.3-3.1-6-5.2c-2.8-3.5-2-8.3,1.2-10.3c1.4-0.9,2.7-1.7,4.3-2.2c3.4-1,6.9-1.6,10.4-1.5c2.2,0.1,4.4-0.1,6.6-0.1
		c2.7,0,5.3,0.7,7.4,2.5c1.5,1.2,2.6,2.8,3.5,4.5c1.6,3.3,3.1,6.6,4.1,10c0.1,0.3,0.2,0.6,0.2,0.8c1.3,5.4,3.3,10.6,5,15.8
		c0.8,2.5,1.5,5.1,2.3,7.7c0.1,0.5,0.3,0.9,0.6,1.3c0.1,0.1,0.3,0.2,0.4,0.2c0.2,0,0.4-0.2,0.4-0.3c0.3-1.2,0.6-2.4,0.9-3.6
		c0.9-5.1,2.2-10,3.8-14.9c1-3.2,1.7-6.4,2.6-9.7c0.4-1.5,0.8-2.9,1.3-4.4c0.7-2.5,1.4-5,1.6-7.5c0.2-2.1,0.9-4.1,1.6-6.1
		c1.6-4.2,2.6-8.6,4-12.8c0.7-2.1,1.4-4.1,2.1-6.2c0.2-0.5,0.4-1.1,0.9-1.5c1.7-1.6,2.8-3.6,3.7-5.7c0.6-1.4,1.3-2.6,2.4-3.5
		c2.1-1.9,3.5-4.3,5.3-6.3c1.2-1.4,2.3-2.8,3.4-4.2c0.2-0.2,0.4-0.4,0.6-0.7c1.7-3.3,4.6-5.6,6.8-8.4c2.2-2.8,4.8-5.2,6.8-8.1
		c2.7-3.9,6.6-6.5,9.7-10c0.7-0.8,1.5-1.5,2.2-2.2c2.8-3.2,6.5-4.6,10.6-4.9c3.8-0.3,7.6-0.6,11.4-0.8c3.9-0.1,7.8,0,11.7-0.1
		c3.5-0.1,7.1-0.2,10.6-0.3c1.4,0,1.7-0.2,1.6-1.4c-0.3-4.1,0.4-8.2,1.2-12.2c1.1-5.7,1.9-11.5,3.1-17.2c0.7-3.4,1.7-6.8,3.2-10
		c0.2-0.5,0.4-1.1,0.6-1.6c0.4-1.5,1.4-2.2,2.8-2.5c1.2-0.3,2.4-0.4,3.7-0.3c5.4,0.4,10.8,1.1,16.1,2.4c4.5,1.1,9.1,2.1,13.7,2.7
		c0.8,0.1,1.7,0.5,2.5,0.6c3.3,0.7,4.7,3,5.4,6c0.4,1.6,0.4,3.2,0.2,4.8c-0.2,1.6-0.4,3.2-0.5,4.8c-0.1,1.5,0.4,1.9,1.8,1.7
		c8.4-1,16.9-1.7,25.4-2.1c2.2-0.1,4.4-0.2,6.6-0.1c3,0.1,5.9-0.2,8.8-0.6c0.5-0.1,0.9-0.2,1.4-0.2c2.7-0.2,4.2,0.9,4.9,3.3
		c0.5,1.6,0.8,3.3,1.1,5c0.6,3.9,0.5,7.8-0.1,11.7c-0.3,1.7-0.6,3.4-0.6,5.1c0,2.4-1.3,3.7-3.4,4.4c-1.4,0.5-2.9,0.9-4.4,1.3
		c-0.3,0.1-0.5,0.2-0.8,0.4c-0.2,0.2-0.3,0.5-0.2,0.7c0.3,0.4,0.6,0.7,1,1c3.3,2.6,6.5,5.3,9.5,8.3c0.9,0.9,1.9,1.7,3,2.2
		c2,1,3.6,2.5,5.3,3.8c3.2,2.5,5.9,5.4,8.8,8.1c0.4,0.4,0.8,0.9,1.3,1.1c2.2,1,3.8,2.8,5.6,4.4c1.1,1,2.3,2.1,3.4,3.1
		c0.6,0.6,1.3,1.2,1.7,1.9c1.1,2,2.9,3.3,4.7,4.5c4.6,3,8.3,6.8,10.5,11.8c1.5,3.3,2.8,6.7,3.6,10.2c0.6,2.5,1.3,5,1.9,7.5
		c0.6,2.5,1.1,5,1.5,7.6c0.9,5.4,1.6,10.7,2.6,16.1c0.7,4.3,1.1,8.7,1.3,13.1c0.2,3.5,0.5,7,0.7,10.6c0.1,1.4-0.1,2.7-1.4,3.5
		c-0.8,0.5-0.8,1.3-0.4,2c2.2,3.5,2.5,7.6,3.1,11.5c0.7,3.9,0.2,7.6-1,11.3c-0.7,2.1-1.6,4.1-3.2,5.7c-0.4,0.4-0.8,0.9-0.5,1.5
		c0.3,0.5,1,0.6,1.5,0.5c2.6-0.2,5.2,0.2,7.7,0.5c2.6,0.4,5.1,0.4,7.7,0.7c3.4,0.3,5.7-1.1,7.1-4.1c1.4-2.8,2.8-5.6,3.4-8.8
		c0.2-1.4,0.9-2.3,2.4-2.5c1.9-0.3,2.9,0.3,3.4,2.2c0.4,1.3,0.4,2.6,0.2,4c-0.4,2.3-0.7,4.7-1.2,7.1c-0.2,1.2-0.2,2.5-0.3,3.7
		c-0.1,3.3-0.2,6.7-0.5,10c-0.1,1.6-0.6,3.2-1,4.8c-0.3,1.2-0.8,2.4-1,3.6c-0.2,1.6-1.1,2.6-2.2,3.6c-0.9,0.8-1.9,1.6-2.8,2.4
		c-1.6,1.4-3.4,2-5.5,2.1c-4.2,0.1-8.4,0.3-12.6,0.5c-0.8,0-1.5,0.1-2.3,0.1c-1.3,0.1-1.6,0.5-1.5,1.9c0,0.6,0.1,1.1,0.2,1.7
		c1.3,8.6,2.1,17.2,2.2,25.9c0.1,6.1,0.2,12.2,0.1,18.3c-0.1,3.1-0.3,6.3-0.4,9.4c-0.1,2.8,0,5.5-0.1,8.3c0,1.5-0.2,3-0.3,4.6
		c-0.1,1.7-0.8,3.1-1.7,4.5c-0.5,0.8-0.8,0.8-1.6,0.1c-0.1-0.1-0.2-0.3-0.3-0.5c-0.2-0.2-0.4-0.3-0.6-0.5l0,0
		c-2-1.2-1.9-3.4-2.2-5.3c-0.6-3.4-0.1-6.9,0-10.3c0.3-10.4,0.5-20.8,0.3-31.2c-0.1-7.5-1.3-14.8-1.6-22.2c-0.1-3.1-0.3-3.1-3.1-2
		c-12.3,5.1-24.5,10.3-36.8,15.1c-2.4,1-5,1.1-7.5,1.9c-1.6,0.6-2.6,1.5-2.3,3.4c1,5.5,0.1,11,0,16.5c-0.1,3.5,0.3,7.1-0.4,10.6
		c-0.3,1.8,0.7,2.4,2.3,2.5c4.5,0.1,9-0.5,13.3-1.4c4.7-1,9.4-1.6,14-3.1c0.7-0.2,1.5-0.3,2.3-0.2c1.3,0.1,2.5,0.4,3,1.8
		c0.4,1.3,0,2.4-0.9,3.4c-0.8,0.9-1.8,1.4-2.9,1.8c-8.7,3-17.5,5.4-26.7,6c-2.6,0.2-5.1,0-7.7-0.5c-4.1-0.7-5.1-2-5.3-6.2
		c-0.2-5-0.2-5-5.2-5.4c-3.3-0.3-6.6-1-9.9-1.7c-2.3-0.5-4.2,0-6.2,1.2c-7.1,4.1-13.9,8.8-21.6,11.8c-4.5,1.7-9.2,2.4-14,2.2
		c-1.1-0.1-2.3-0.2-3.4-0.1c-12.5,1.2-25,0.2-37.4-0.7c-11.8-0.9-23.6-1.1-35.4-2.3c-10.5-1.1-21.1-1.4-31.6-2.5
		c-3.1-0.3-5.2-2.1-6.2-4.9c-2.9-8.2-6.7-16-9-24.4c-3.2-11.8-7-23.4-9.5-35.4c-0.3-1.7-0.8-3.3-1.4-5c-0.5-1.4-1.3-1.5-2.4-0.7
		c-3.9,3.2-7.4,6.8-11.1,10.3c-1.1,1-0.8,2.5-0.4,3.8c2.8,7.8,4.7,15.9,8,23.6c1.7,4,1.3,8.3,0.2,12.4c-2.1,8.2-4.9,16.3-6.7,24.6
		c-0.2,0.9-0.5,1.9-1,2.7C94.8,328.7,93.5,329.5,91.7,328z"/>
	<path class="st1" d="M91.7,328c0.7-0.2,1.4,0.7,2.2,0.2c1-0.6,1.6-1.3,1.9-2.4c0.7-2.6,1.4-5.2,2-7.7c0.6-2.2,1.1-4.4,1.6-6.7
		c0.2-0.8,0.4-1.6,0.9-2.4c0.4-0.5,0.5-1.2,0.7-1.9c0.5-2,0.9-4.1,1.5-6.1c1.2-3.5,1.2-7.1,0.9-10.7c-0.1-0.8-0.3-1.5-0.6-2.2
		c-1.4-3.4-2.8-6.9-4-10.4c-0.9-2.7-1.7-5.5-2.4-8.2c-0.3-1.3-0.8-2.5-1.2-3.8c-0.3-0.8-0.7-1.6-0.9-2.4c-0.5-1.9-0.3-3.5,1.6-4.7
		c2.5-1.6,4.3-4.1,6.5-6c1.8-1.5,3.6-3.1,5.4-4.7c0.8-0.7,1.7-0.3,2,0.7c0.8,3.1,1.7,6.2,2.3,9.4c0.9,4.7,2.4,9.2,3.6,13.8
		c0.9,3.3,2,6.6,2.8,9.9c0.8,3.5,1.8,7,2.9,10.4c0.6,2.1,1.6,4.1,2.2,6.2c1.2,4.1,3.1,8,4.7,11.9c0.5,1.3,1,2.7,1.4,4.1
		c0.9,3,3.1,5,6.2,5c3.4,0,6.8,0.7,10.2,0.8c2.9,0.1,5.7,0.5,8.6,0.3c1.2-0.1,2.4,0.1,3.7,0.3c4.8,0.7,9.6,1.4,14.5,1.5
		c2.3,0,4.5,0.3,6.8,0.5c0.6,0,1.1,0.1,1.7,0c2.2-0.2,4.4,0.1,6.5,0.3c3,0.3,6,0.7,9.1,0.9c2.2,0.1,4.4,0,6.6,0.3
		c3.7,0.4,7.4,0.6,11.1,0.9c0.3,0,0.6,0.1,0.9,0c3.2-0.2,6.5,0.1,9.7,0.2c5.1,0.1,10.1-0.4,15.1-0.5c2.1,0,4.2,0,6.3,0.1
		c2.7,0.1,5.2-1,7.9-1.1c0.4,0,0.7-0.2,1.1-0.4c2.9-1.3,5.8-2.4,8.5-4c2.9-1.7,6.1-3.1,8.8-5.2c0.8-0.6,1.8-1,2.7-1.5
		c1.3-0.7,2.8-1.2,3.8-2.4c0.6-0.7,1.4-0.9,2.3-0.9c1,0,1.9,0.1,2.8,0.3c2.9,0.6,5.8,1.2,8.7,1.7c2.2,0.3,4.4,0.3,6.5,0.4
		c0.9,0.1,1.2,0.3,1.3,1.2c0,0.7,0.1,1.4-0.1,2c-0.4,1.6-0.1,3.2-0.1,4.8c0,1.2,0.7,2,1.6,2.5c0.5,0.3,1,0.6,1.6,0.6
		c2.2,0.3,4.3,0.7,6.5,0.7c4.4,0,8.8-0.6,13-1.5c5.5-1.2,10.9-2.6,16.2-4.6c1.1-0.4,2-1,2.7-2c1.1-1.4,0.4-3.2-1.3-3.4
		c-1.1-0.1-2.3,0-3.4,0.3c-3,1-6.1,1.6-9.2,2.1c-1.1,0.2-2.3,0.4-3.3,0.8c-1.9,0.7-3.9,0.8-5.9,1c-1.7,0.2-3.4,0.3-5.1,0.7
		c-1.9,0.5-3.8-0.1-5.7-0.2c-0.6,0-1.1-0.7-1-1.5c0.1-1.1,0.2-2.3,0.4-3.4c0.2-1.1,0.2-2.3,0.2-3.4c-0.1-3.7,0.3-7.4,0.3-11.1
		c0-3.7,0.8-7.4-0.4-11.1c-0.2-0.6-0.1-1.3,0-2c0.1-0.6,0.4-1.1,1-1.3c1.5-0.5,3.1-1.1,4.6-1.4c2.4-0.5,4.8-1.1,7.1-2.1
		c3.5-1.6,7.2-2.5,10.6-4.2c5.2-2.5,10.7-4.5,16.1-6.7c2.3-0.9,4.6-1.9,6.9-2.8c1.1-0.4,2-1,3-1.7c1-0.7,1.9-0.2,2,1
		c0.2,2.5,0.4,4.9,0.5,7.4c0.2,3.4,1.1,6.8,1.1,10.2c0,3.3,0.1,6.7,0.2,10c0,1.6,0.1,3.2,0.2,4.9c0.3,3.5,0,7-0.2,10.6
		c0,0.6-0.1,1.1,0,1.7c0.3,3.8-0.2,7.6-0.3,11.4c-0.1,3.4-0.4,6.9,0,10.3c0.2,1.9,0.6,3.7,1.4,5.5c-0.2,0-0.4,0.1-0.5,0.2
		c-2.8,1.7-5.9,1.9-9.1,1.7c-7-0.4-13.9-0.2-20.9-0.1c-3.2,0-6.5,0-9.7-0.1c-2.6,0-5.2,0.1-7.7-0.1c-3.5-0.3-7-0.8-10.5-1.3
		c-3.1-0.4-6.2-0.8-9.4-0.6c-8.4,0.3-16.8,0.6-25.2,0.9c-3.6,0.1-7.2,0.1-10.8-0.1c-4.6-0.1-9.1-0.8-13.7-1.1
		c-1.1-0.1-2.3-0.2-3.4-0.5c-4.7-1.2-9.4-1.2-14.2-1.1c-2.7,0.1-5.5-0.3-8.3-0.5c-2.6-0.2-5.1-0.3-7.7-0.2
		c-6.9,0.3-13.7,0.5-20.6,0.6c-4.1,0-8.2-0.2-12.3-0.6c-2.1-0.2-4.2-0.2-6.3-0.2c-2.5-0.1-5-0.1-7.4-0.1c-5.4-0.1-10.9,0-16.3-0.2
		c-6.1-0.2-12.2-0.6-18.3-1c-0.4,0-0.8,0-1.1,0c-3.4,0.2-6.9-0.1-10.3-0.5c-2.2-0.3-4.4-0.4-6.6-0.2c-3.6,0.2-7.2-0.2-10.8-0.3
		c-1.6,0-3.2-0.2-4.8-0.5C94.6,330.7,92.9,329.7,91.7,328z"/>
	<path class="st2" d="M61.6,139.8c-3.3,0.4-6.6,0.1-9.7-0.6c-6.4-1.5-11.1-5.2-13.8-11.3c-0.6-1.3-1-2.7-1-4.2
		c-0.1-5.6,0.9-11,4.2-15.7c0.8-1.1,1.7-2,2.7-2.9c0.8-0.7,0.7-1.1-0.1-1.8c-0.5-0.4-1.1-0.8-1.6-1.3c-4.9-4.7-5.4-10.7-2.5-16.5
		c0.6-1.3,1.7-2.3,3.1-2.8c2.1-0.8,4.1-2.1,6.3-2.6c0.9-0.2,1.2-0.8,1.1-1.7c-0.3-1.6-0.7-3.2-0.9-4.8c-0.3-2.4,0.7-4.2,2.9-5.3
		c1.4-0.7,2.9-0.8,4.5-0.7c0.6,0,1.1,0.4,1.4,0.8c1.6,1.9,3.2,3.8,3.8,6.3c0.2,0.8,0.6,1.6,0.9,2.4c0.5,1.1,1.2,1.5,2.3,1.8
		c1.8,0.5,3.6,1.1,5.4,1.9c1.6,0.6,2.7,1.9,3.5,3.3c2.4,4.3,3,8.8,1.2,13.5c-1.1,2.8-1.1,2.8,1.2,4.6c0.7,0.5,1.2,1.2,1.6,1.9
		c0.9,1.7,2,3.3,2.8,5c2,4.1,3.5,8.4,3.9,13.1c0.1,2.1-0.5,4-1.5,5.7c-1.1,1.9-2.4,3.7-3.6,5.5c-0.8,1.2-2.1,1.9-3.3,2.7
		c-2,1.3-4.2,2.3-6.6,2.5c-0.9,0.1-1.9,0.3-2.8,0.6C65.1,139.5,63.4,139.8,61.6,139.8z"/>
	<path class="st3" d="M11.7,109.9c0.7-0.1,1.4,0.1,2.1,0.5c1.7,1.3,3.5,2.2,5.6,2.7c1.6,0.4,2.3,2.4,1.6,4c-0.3,0.5-0.8,0.9-1.4,0.9
		c-0.3,0-0.6,0-0.8,0c-3.1-0.9-6-2-8.1-4.5c-0.2-0.2-0.4-0.4-0.6-0.6C9.3,111.4,10,110,11.7,109.9z"/>
	<path class="st4" d="M75.7,56.8c0.1-0.3,0.1-0.9,0.3-1.4c0.9-1.9,1.7-3.8,3-5.5c0.2-0.2,0.3-0.5,0.5-0.7c0.6-0.6,1.7-0.8,2.4-0.5
		c0.8,0.4,1.5,1.4,1.3,2.3c-0.7,2.7-1.9,5.2-3.7,7.3c-0.7,0.8-1.6,0.9-2.6,0.5C76,58.5,75.7,57.9,75.7,56.8z"/>
	<path class="st5" d="M9.9,94.7c2.8-0.1,5.2,0.9,7.4,2.6c0.8,0.6,1,1.3,0.6,2c-0.5,0.9-1.1,1.6-2.2,1.5c-0.4,0-0.7-0.1-1.1-0.3
		c-1.8-0.6-3.6-1.3-5.3-2c-0.4-0.2-0.8-0.5-1.2-0.8c-0.6-0.5-0.6-1.2-0.2-1.8C8.3,95.3,8.9,94.7,9.9,94.7z"/>
	<path class="st6" d="M89.2,64.9c-0.5,0-0.9,0-1.3-0.1c-0.8-0.1-1.3-0.9-1.2-1.7c0-0.4,0.2-0.7,0.3-1.1c0.6-1.5,1.5-2.8,2.6-4
		c0.7-0.8,1.2-0.9,2-0.6c1,0.4,1.7,1.3,1.5,2.2c-0.4,2-1.5,3.6-3,5C89.9,64.9,89.4,64.9,89.2,64.9z"/>
	<path class="st1" d="M362.5,337.1c0.4,0,0.5,0.1,0.6,0.5C362.7,337.6,362.5,337.4,362.5,337.1z"/>
	<path class="st7" d="M233.1,199.6c2.3,1.2,4,3.1,5.3,5.4c3.7,6.4,8.3,12.3,12.9,18.2c2.2,2.8,4.4,5.5,6.6,8.3
		c1,1.4,1.9,2.8,2.6,4.4c0.8,2,2.3,3.5,3.6,5.1c1.6,2,3.4,3.9,5.1,5.8c0.5,0.6,1.1,1.1,1.6,1.6c0.4,0.4,1,0.7,1.5,0.7
		c2.3,0,4.5,0.2,6.8-0.7c3.7-1.4,7.2-3,10.7-4.7c2.4-1.2,4.8-2.4,7.2-3.4c3-1.3,6.2-1.7,9.5-1.9c1.5-0.1,3-0.2,4.6-0.3
		c1.5-0.1,2.5-1,2.9-2.3c0.3-0.9,0.7-1.8,0.7-2.8c0-2.6,0.7-5.1,1.4-7.6c0.7-2.6,1.1-5.2,1.2-7.9c0.3-5,0.8-10.1,1.2-15.1
		c0.5-5.7,1-11.4,1.6-17.1c0.5-4.9,1-9.9,1.6-14.8c1.1-8.9,2-17.8,2.2-26.8c0.1-5.8,0-11.6,0-17.5c0-1.3-0.2-2.7-0.3-4
		c-0.2-1.6-1-2.6-2.5-3.2c-1-0.4-2-0.7-3-1c-3-0.7-5.9-1.6-8.6-3.1c-3.2-1.7-6.8-2.5-10.3-3.4c-1.2-0.3-2.4-0.7-3.6-1
		c-0.8-0.2-1.6-0.5-2.5-0.7c-4-0.6-7.9-1.2-11.9-1.8c-1.6-0.2-3.2-0.3-4.8-0.9c-0.8-0.3-1.5-0.2-2.2,0c-1.1,0.3-1.3,0.2-1.6-0.9
		c-0.7-2.9-1.7-5.7-2.9-8.3c-1.1-2.3-3.1-3.4-5.6-2.9c-1.3,0.3-2.6,0.7-3.9,1c-1.1,0.3-2.2,0.7-3.3,0.9c-4.9,0.8-9.4,2.9-14.1,4.7
		c-0.6,0.2-1.3,0.5-1.9,0.8c-1.7,0.8-3.4,1-5.3,0.9c-5.8-0.5-11.6-0.5-17.4-0.6c-4.2-0.1-8.4-0.2-12.6-0.4c-9.4-0.5-18.7-0.5-28,0.1
		c-5.8,0.4-11.6,0.9-17.4,1.2c-2.3,0.1-4,1.1-5.5,2.6c-1.4,1.3-2.6,2.8-3.4,4.6c-0.4,0.9-1.1,1.8-1.7,2.6c-1.6,2-3.4,3.9-5,5.9
		c-1.1,1.3-2.2,2.7-3.1,4.1c-0.9,1.4-1.6,2.8-2.6,4.1c-0.6,0.9-0.9,1.9-1,2.9c-0.2,1.4-0.7,2.7-1.3,4.1c-1.7,3.8-3.2,7.6-4.8,11.3
		c-1.8,4.3-3.6,8.6-5,13.1c-1,3.2-1.8,6.4-2.7,9.6c-1.1,3.8-2.3,7.7-3.6,11.5c-1,2.7-1.6,5.5-2.4,8.2c-1.3,4.5-2.8,8.9-3.7,13.5
		c-0.2,0.8-0.3,1.7-0.4,2.5c-0.9,7-2.5,13.9-4,20.8c-0.1,0.2-0.3,0.6-0.5,0.6c-0.4,0-0.7-0.3-0.8-0.7c-0.4-1.3-0.9-2.5-1.3-3.8
		c-1.1-3.7-2.1-7.3-3.2-11c-0.2-0.8-0.3-1.5,0-2.2c1-2.4,1.2-5,1.6-7.5c1.1-7.4,2.8-14.6,5.3-21.6c0.4-1.1,0.6-2.2,0.7-3.3
		c0.2-3.5,1.3-6.7,2.2-10c1.1-4,2.3-8.1,3.5-12.1c0.8-2.6,1.7-5.3,2.5-7.9c0.8-2.7,1.6-5.5,2.1-8.3c0.3-2.1,1.3-4,2.6-5.7
		c2.4-3,4.5-6.2,7-9.1c2.6-2.9,5-5.9,7.2-9.2c1.3-1.9,2.8-3.6,4.3-5.4c1.1-1.3,2.2-2.6,3.5-3.8c1.6-1.5,3-3.2,4-5.2
		c0.3-0.5,0.6-1,0.9-1.4c1.5-1.7,3-3.4,4.5-5.2c1-1.2,2.3-2.3,3.5-3.4c1.7-1.5,3.4-3.1,4.4-5.2c0.6-1.3,1.6-2.1,3.1-2.2
		c0.8-0.1,1.5-0.2,2.3-0.3c7.2-0.4,14.5-0.5,21.8-0.5c6.4,0,12.8,0,19.2-0.2c8.7-0.2,17.4-0.1,26,0.1c4.2,0.1,8.4,0.1,12.6,0.3
		c4.5,0.1,9,0.3,13.4,0.4c3.6,0.1,7.3,0.1,10.9,0.1c3.2,0,6.5,0,9.7,0c1.5,0,3,0.4,4.5,0.6c0.4,0.1,0.8,0.2,1.1,0.4
		c2.1,1.5,4.4,2.6,6.3,4.5c3.1,3,6.3,5.8,10.1,7.9c1.9,1.1,3.8,2.3,5,4.1c0.5,0.8,1.3,1.4,2,2c2.1,1.8,4.3,3.5,6.4,5.2
		c0.3,0.2,0.6,0.5,0.9,0.7c4.4,2.2,7.5,6.1,11.2,9.2c2.5,2.1,4.6,4.5,7.3,6.4c1.9,1.4,3.6,3.1,5,5c1.5,2.1,3.3,3.9,5.2,5.7
		c1.5,1.4,2.4,2.9,3.1,4.7c0.5,1.2,0.9,2.5,1.2,3.8c2.1,7.9,3.6,15.8,4.5,23.9c1.1,9.8,2.3,19.5,2.8,29.4c0,0.5,0,0.9,0,1.4
		c0,0.3-0.2,0.5-0.6,0.4c-0.2,0-0.3-0.1-0.5-0.2c-2.9-1.6-6-1.8-9.2-1.6c-1.8,0.1-3.3,1-4.6,2.1c-1.1,0.9-2.2,1.9-3.3,2.8
		c-1.3,1.1-2.4,2.5-3.1,4c-0.4,0.8-0.8,1.5-1.7,1.8c-1.4,0.5-1.8,1.6-1.8,2.9c0,0.9,0,1.7,0.1,2.6c0.5,4.8,1,9.7,1.9,14.5
		c1.3,6.7,2.2,13.4,3.3,20c0.7,4.5,1.6,9,2.7,13.5c0.4,1.4,0.6,2.8,0.9,4.2c0.1,0.9-0.1,1.4-0.9,1.5c-4.3,0.9-8,3.2-11.9,4.8
		c-3.6,1.5-7.2,3-10.8,4.6c-3.3,1.1-6.4,2.6-9.5,4.1c-1.5,0.7-2.9,1.3-4,2.7c-0.4,0.6-1.1,0.6-1.8,0.3c-6.1-2.7-12.5-4-19-4.9
		c-2.7-0.4-5.5-0.8-8.2-1.2c-8-1-16.1-2.1-24.2-1.4c-1.3,0.1-2.1-0.3-2.7-1.5c-1.1-2.1-2.2-4.2-2.8-6.6c-0.5-2-1.5-3.7-2.7-5.3
		c-1.9-2.6-4.3-3.8-7.6-3.6c-2.2,0.2-4.3,0.6-6.2,1.9c-1.2,0.8-1.9,1.8-2,3.3c0,1.1-0.1,2.3,0,3.4c0.4,5.2,0.8,10.5,1.3,15.7
		c0.2,1.8,0.5,3.6,0.7,5.4c0.3,2.2,1,4.3,1.8,6.3c0.7,1.9,2.3,3,3.9,4.1c2.4,1.6,4.8,3,7.7,3.6c1.5,0.3,2.9,0.8,4.3,1.5
		c3.8,1.7,7.8,2.5,11.8,3.3c3.5,0.6,6.9,1.2,10.4,1.9c0.4,0.1,0.8,0.2,0.8,0.7c0,0.2-0.2,0.5-0.4,0.7c-0.3,0.3-0.6,0.5-0.9,0.7
		c-0.8,0.5-1.6,1-2.4,1.5c-2.2,1.3-4.4,2.6-6.8,3.5c-2.8,1-5.4,2.5-8,3.9c-0.9,0.5-1.7,0.8-2.7,0.2c-0.9-0.5-1.8-0.4-2.8-0.4
		c-7.3-0.2-14.7,0.2-22,0.5c-3.5,0.1-7.1-0.1-10.6-0.3c-5.3-0.4-10.7-0.6-16-0.5c-4.5,0.1-9-0.2-13.4-0.4
		c-6.2-0.3-12.4-0.5-18.6-0.9c-2-0.1-4-0.4-6-0.6c-7.1-0.7-14.3-1.1-21.4-0.8c-2.6,0.1-4.3-1.2-4.8-3.8c-0.6-2.9-1.8-5.6-2.9-8.4
		c-2.3-5.9-4.4-11.8-6.2-17.8c-1.2-4-2.6-8-3.8-12c-1.8-5.7-3.5-11.5-4.8-17.4c-1.2-5.3-2.2-10.6-3.3-16c-0.2-1.1-0.4-2.3-1.2-3.2
		c-0.2-0.2-0.3-0.5-0.3-0.8c-0.2-0.9,0.5-2.1,1.6-1.7c2.4,0.9,5,1.1,7.5,1.7c1.4,0.3,2.8,0.5,4.2,0.6c1.5,0.1,3,0.2,4.5,0.7
		c1.1,0.3,2.2,0.5,3.4,0.6c3.7,0.4,7.4,1,11,1.7c1.1,0.2,2.3,0.3,3.4,0.3c1.3-0.1,2.4-0.5,2.9-1.8c0.6-1.5,1.7-2.5,2.9-3.5
		c1.4-1.1,2.7-2.5,4-3.7c0.3-0.3,0.6-0.7,0.6-1.2c2.3-3.9,5.7-6.8,8.9-9.9c4.5-4.4,8.9-9,13.1-13.7c0.1-0.1,0.2-0.3,0.4-0.4
		c1.1-1,2.6-2.6,3.7-1.7c1,0.9-0.8,2.3-1.6,3.2c-2.2,2.7-4.3,5.4-5.5,8.7c-1.3,3.4-1.6,6.7,1.4,9.5c2.8,2.6,6.6,3,10.4,1.2
		c3.8-1.8,7.2-4.2,10.1-7.4c2.3-2.5,2.7-2.5,5,0.2c5.8,6.7,14.9,7.4,21,1.6c3.5-3.4,3.9-10.9,0.8-14.7c-0.9-1.1-1.9-1.6-3.3-1
		c-1.5,0.7-1.6,2-1.3,3.4c0.1,0.7,0.5,1.2,0.7,1.9c1.8,5.7-0.9,8.5-6.6,9c-4.7,0.4-8.2-2.6-9.4-7.2c-0.4-1.4-0.7-2.8-1.4-4.1
		c-0.8-1.6-2-1.6-3.1-0.2c-0.4,0.5-0.6,1.2-0.9,1.8c-2.9,6.4-8.5,9.9-14.3,13c-1.5,0.8-3.2,0.7-4.6-0.5c-1.5-1.3-1.8-3-1.3-5
		c1-3.9,3.7-6.9,5.4-10.4c0.6-1.3,2.2-2.6-0.7-3.2c-0.8-0.2-0.7-1.1-0.1-1.6c0.8-0.8,1.9-1.1,3.1-1.3c6.5-0.9,13.1-0.9,19.6-0.5
		c4.4,0.2,8.7-0.4,13.1-0.6c1.7-0.1,3.4,0.1,5.1,0c1,0,1.8-0.1,2.7-0.8C231.7,196.8,231.8,196.8,233.1,199.6z"/>
	<path class="st8" d="M263.9,121.1c0-0.8,0.5-1.1,1-1.3c1.3-0.8,2.7-1.5,4-2.2c0.9-0.5,1.8-1.1,2.6-1.7c1.3-1,2.3-1.9,2.3-3.7
		c0-0.5,0.6-0.9,1-0.6c2.2,1.3,4.7,1.6,7.2,1.9c3.5,0.4,6.9,1.4,10.3,2.3c3.3,0.9,6.6,1.8,9.9,2.8c2.3,0.7,4.5,1.7,6.6,2.7
		c2,0.9,4.1,1.5,6.3,1.8c3.4,0.4,3.5,0.5,3.4,3.9c-0.1,5-0.2,9.9-0.4,14.9c-0.2,3.8-0.3,7.6-0.6,11.4c-0.5,6.1-1.1,12.1-1.8,18.2
		c-0.4,3.2-0.6,6.4-0.7,9.7c-0.2,4.6-0.7,9.1-1,13.7c-0.3,3.7-0.6,7.4-0.9,11.1c-0.4,4.7-0.8,9.3-1.6,13.9c-0.3,1.5-0.7,3-1,4.5
		c-0.5,2-1.1,4-1.3,6.1c-0.1,1.7-0.5,2-2.1,2.1c-1.4,0.2-2.8,0.3-4.3,0.4c-1.4,0.1-2.7,0.4-3.9,0.9c-3.1,1.3-6.2,2.5-9.1,4.1
		c-2,1.1-4.1,2.1-6.3,2.6c-2.3,0.5-4.4,1.9-6.6,2.8c-0.4,0.1-0.7,0.4-1,0.5c-0.9,0.4-1.2,0.3-2-0.4c-2.6-2.4-4.8-5.1-6.9-8
		c-1.5-2-2.9-4-4.3-6.1c-1.8-2.6-3.5-5.2-5.3-7.7c-1.8-2.5-3.7-4.8-5.7-7.2c-1.1-1.4-2.4-2.7-3.6-4.1c-2.3-2.6-4-5.6-5.5-8.7
		c-0.1-0.3-0.1-0.6,0.1-0.8c0.1-0.1,0.4-0.2,0.5-0.2c7.3,1.8,14.6,0.8,21.8-0.5c6.2-1.2,11.7-4.1,15.9-9c1.5-1.8,3.2-3.6,4.4-5.6
		c1.6-2.8,3.6-5.4,4.9-8.3c1.5-3.4,2.8-6.9,3.7-10.5c0.9-3.4,1.1-7,0.7-10.5c-0.6-5.4-1.8-10.8-3.9-15.8c-1.4-3.2-3.3-6.2-5.7-8.8
		c-1.5-1.6-2.8-3.4-4.6-4.7c-1.2-0.9-2.5-1.7-4-2.1c-2.7-0.8-5.3-1.7-7.9-2.6C267,122,265.4,121.6,263.9,121.1z"/>
	<path class="st7" d="M256.8,195.8c-3.2,0.4-6.5,0.3-9.7-0.1c-3.6-0.4-7-1.7-10.4-3.1c-2.3-0.9-4.6-1.9-6.4-3.6
		c-3.2-2.9-6.2-5.9-8.4-9.7c-2.3-3.9-3.8-8.1-4.7-12.5c-0.7-4-1.1-7.9-0.7-11.9c0.4-3.2,1.1-6.2,2.3-9.1c0.3-0.8,0.7-1.6,1.2-2.3
		c1.7-2.2,3.3-4.5,4.8-6.7c0.6-0.9,0.8-1,1.9-0.5c2.1,1,4,0.8,6-0.2c2.3-1.1,4.6-2.3,6.8-3.6c3.3-1.9,6.7-3.6,10.1-5.3
		c0.6-0.3,1.3-0.5,1.9-0.5c3.7-0.5,7.4-0.6,11.1-0.4c0.2,0,0.4,0,0.6,0.1c4.6,1.1,9,2.7,12.9,5.3c4.4,2.9,7.3,6.9,8.8,12
		c0.8,2.5,1.4,4.9,1.9,7.5c0.4,2.2,1,4.3,1,6.5c0,4-0.2,8-1.8,11.8c-0.2,0.5-0.4,1.1-0.5,1.6c-1.1,4.8-3.5,8.8-6.8,12.3
		c-2.1,2.3-4.2,4.7-6.5,6.8c-3.2,2.9-6.9,4.7-11.2,5.3C259.7,195.7,258.2,195.7,256.8,195.8z"/>
	<path class="st7" d="M148,196.3c-1-0.9-2-1.8-3-2.6c-2.3-1.7-4-4-5.7-6.3c-1-1.3-1.8-2.8-2.3-4.3c-1.8-5.3-3.1-10.6-2.9-16.2
		c0-1,0.2-2.1,0.5-3.1c0.9-3.4,2.1-6.7,3.9-9.8c0.3-0.5,0.5-1,0.8-1.5c0.8-1.8,2.1-3.2,3.7-4.3c0.6-0.4,1.3-0.8,1.9-1.3
		c4.7-4,10.1-6.5,16-7.9c4.2-1,8.5-1.1,12.8,0c1.6,0.4,3.2,0.7,4.7,1.1c1.8,0.4,3.5,1.1,5,2.1c2.5,1.6,5.1,2.9,7.3,5
		c3.9,3.8,6.5,8.4,7.3,13.9c0.3,2.1,0.7,4.1,0.9,6.2c0.5,3.5,0.1,7-1.4,10.3c-1.5,3.2-3.3,6.2-5.4,9.1c-1.2,1.7-2.8,3.1-4.3,4.5
		c-1.8,1.7-3.3,3.7-5.3,5.1c-4.9,3.9-10.5,4.6-16.6,4.6c-4.4,0-8.6-0.5-12.8-1.7c-0.3-0.1-0.6-0.2-0.8-0.3
		C150.7,198.1,149.4,197.1,148,196.3z"/>
	<path class="st8" d="M214.8,194.4c-4.3,0-7.9-0.1-11.4-0.1c-2.6,0-5.2,0.1-7.7,0.1c-0.5,0-0.9-0.5-0.6-1c0.1-0.2,0.3-0.5,0.5-0.7
		c0.5-0.7,1-1.4,1.6-2.1c3.3-3.8,5.3-8.4,7.2-12.9c1.6-4,2-8.1,1.1-12.4c-0.5-2.3-1.1-4.6-1.7-7c-1.3-5.1-3.8-9.5-7-13.7
		c-0.7-0.9-0.8-1.2-0.1-2c2.1-2.3,2.9-5.1,3.2-8.1c0.1-1.2,0.4-2.5,0.6-3.7c0.4-2.3-0.4-4.1-2.4-5.4c-1.4-0.9-2.6-1.9-4-2.7
		c-1.8-0.9-3.3-2.2-5-3.4c-2-1.4-4.1-2.8-6.6-3.3c-0.3-0.1-0.6-0.1-0.8-0.2c-4.7-2.7-9.9-4.5-14.8-6.9c-0.3-0.2-0.6-0.4-0.9-0.7
		c-0.1-0.1,0-0.4,0.1-0.5c0.4-0.1,0.7-0.3,1.1-0.3c6.5-0.4,12.9-1,19.4-0.7c5,0.2,9.9,0.2,14.9,0.3c5.1,0.1,10.1,0.3,15.2,0.5
		c3.1,0.1,6.3,0,9.4,0c0.5,0,0.9,0,1.4,0.1c0.2,0,0.3,0.6,0.2,0.7c-0.3,0.2-0.6,0.5-0.9,0.7c-1.8,0.7-3.5,1.6-4.7,3.1
		c-0.2,0.2-0.4,0.4-0.7,0.5c-2.1,0.9-2.4,2.7-2.4,4.7c0.2,3.8,1.1,7.5,2.4,11.1c0.5,1.3,1,2.5,1.4,3.7c0.3,0.9,0.1,1.5-0.6,2
		c-3.2,1.9-5.5,4.7-7.4,7.8c-0.6,1-1.3,1.9-1.9,2.9c-0.6,1-1,2.1-1.2,3.2c-0.7,4.9-1.6,9.8-0.9,14.8c0.4,3.1,0.8,6.2,1.7,9.3
		c0.2,0.6,0.3,1.3,0.4,2c0.9,5.1,3.4,9.2,6.9,12.9c1.7,1.8,3.4,3.6,5.1,5.4c0.4,0.4,0.2,1-0.4,1.1c-1,0.1-2.1,0.2-3.1,0.3
		C218.9,194.2,216.5,194.3,214.8,194.4z"/>
	<path class="st9" d="M69.4,160.1c2.2,0,5.1-0.1,7.9,0.2c5.3,0.6,4.6,0.3,6.9,4.7c1.5,2.7,2.4,5.6,3.1,8.6
		c1.7,6.9,4.3,13.4,6.5,20.1c1.6,4.7,3.6,9.2,5.1,14c1.2,4,2.2,8.1,3.5,12.1c1.5,4.6,2.9,9.3,4.5,13.9c0.5,1.5,0.8,2.9,0.3,4.5
		c-0.1,0.2-0.1,0.4-0.1,0.6c0.3,2.2-0.9,3.6-2.5,4.8c-2.4,1.9-4.2,4.4-6.4,6.6c-1.3,1.4-2.8,2.5-4.3,3.7c-0.8,0.6-1.4,0.4-1.7-0.6
		c-0.9-2.4-1.7-4.9-2.5-7.3c-0.5-1.4-0.8-2.8-1.3-4.1c-1.4-3.6-2-7.4-2.4-11.2c-0.3-2.1-0.6-4.1-1-6.2c-0.6-3.2-1.1-6.4-1.6-9.6
		c-1.1-7.7-2.3-15.5-3.3-23.2c-0.5-3.8-0.6-7.6-0.9-11.4c-0.1-1-0.2-2.1-0.5-3.1c-0.7-2.1-2.1-3.5-4.3-3.7c-4.1-0.3-7.7-2-11.2-4
		c-0.9-0.5-1.9-1-2.8-1.3c-1.2-0.5-2.1-1.4-2.9-2.3c-0.9-1-0.7-2.2,0.4-2.9c1-0.7,2.1-1.3,3.3-1.6C63.6,160.4,66.2,160.2,69.4,160.1
		z"/>
	<path class="st8" d="M235.8,286.5c-1.2-7-1.3-14.1-2.2-21.1c-0.1-0.8-0.2-1.5-0.2-2.3c0-0.9,0.5-1.5,1.3-1.6
		c0.9-0.2,1.9-0.3,2.8-0.3c0.6-0.1,1.1,0.2,1.6,0.5c0.9,0.7,1.8,1.4,2.3,2.5c0.3,0.6,0.7,1.2,0.9,1.8c1.1,3.6,2.9,6.8,4.2,10.3
		c0.6,1.6,1.5,2.5,3.3,2.7c1.6,0.2,3.2,0.6,4.8,0.5c5.6-0.2,11,0.4,16.5,1.1c4.7,0.5,9.4,1.3,14.2,2c1.4,0.2,2.8,0.4,4.3,0.4
		c4.4,0.1,8.3,1.8,12.3,3.4c0.9,0.4,1.4,1.1,1.2,2c-0.5,2.7-0.2,5.5-0.6,8.3c-0.4,2.7-0.4,5.5-0.6,8.3c-0.1,1.4-0.3,1.6-1.5,1.2
		c-1-0.4-2-0.5-3.1-0.6c-1.8-0.3-3.6-0.7-5.3-1c-8.9-1.7-17.8-3.6-26.7-4.8c-1.3-0.2-2.7-0.3-4-0.4c-4.1-0.2-8.1-1.3-11.9-2.7
		c-3.5-1.3-7-2.5-10.4-4.1c-3.1-1.4-3-0.9-3.1-4.6C235.9,287.5,235.8,287,235.8,286.5z"/>
	<path class="st10" d="M121.6,205.5c1.4,2.8,3.5,5.2,5.6,7.5c0.5,0.6,1.1,1.1,1.6,1.6c1.4,1.6,3.2,1.9,5.2,1.7c1.3-0.1,2-1,2.4-2.2
		c0.3-1.1-0.2-2.3-1.2-3c-0.3-0.2-0.7-0.4-1-0.5c-3.1-0.8-4.9-3-6.4-5.7c-1.8-3.4-2.5-7.2-2.5-11c0-1.6,0.4-3.2,0.6-4.8
		c0.2-1.4,0.4-2.6-0.7-3.7c-0.4-0.4-0.5-1-0.4-1.6c0.9-3.7,1.9-7.4,2.9-11c0-0.2,0.2-0.3,0.3-0.5c0-0.1,0.1-0.1,0.2-0.1
		c0.2-0.1,0.4,0,0.4,0.2c0.1,0.4,0.2,0.7,0.2,1.1c0.1,3.5,0.9,6.8,1.9,10.1c1,3.3,2.6,6.3,5,8.9c2.1,2.2,4.1,4.5,6.2,6.7
		c1.2,1.2,2.4,2.2,3.8,2.9c2.9,1.5,5.7,2.9,9.1,3.2c1.8,0.1,3.5,0.8,5.3,1.1c3.2,0.5,6.4,0.8,9.7,0.6c0.5,0,1,0,1.4,0.1
		c0.4,0.1,0.6,0.5,0.5,0.9c-0.1,0.6-0.6,1-1,1.4c-2,2-4,4.1-6,6.2c-0.3,0.3-0.4,0.6-0.6,0.9c-1.5,2.9-4.4,4.5-6.5,6.7
		c-2,1.8-3.9,3.6-5.8,5.4c-1.5,1.4-3.2,2.7-4.2,4.6c-0.3,0.6-0.9,0.7-1.5,0.7c-0.6,0-1.2,0-1.7-0.2c-4.1-1.1-8.3-1.2-12.4-2
		c-2.2-0.4-4.5-0.9-6.7-1.3c-2.9-0.6-5.8-1-8.8-1.3c-1.4-0.1-1.8-0.6-1.7-2.1c0.1-1.4,0.2-2.9,0.5-4.3c0.9-4.7,1.9-9.3,2.8-14
		c0.1-0.3,0.2-0.5,0.3-0.8c0.6-1.1,0.6-2.3,0.9-3.5l0,0c0.8-0.1-0.6-3,1.6-1.2c0.1,0.2,0.1,0.3,0.1,0.5
		C121.4,204.3,121,205.1,121.6,205.5z"/>
	<path class="st11" d="M157.6,223.3c0.7-1.7,1.9-3,3.4-4c1.1-0.8,2.1-1.8,3.2-2.7c-0.5,1.6,0.6,2.6,1.2,3.8c2-1.2,2.3-1.6,3.6-3.5
		c0.2-0.4,0.6-0.8,1-0.9c1-0.3,1.5-1,2.1-1.8c0.9-1.1,1.8-2.2,3-3.1c1.5-1.1,2.5-2.9,4.1-4c0.7-0.5,0.1-1.2,0-2c0.1-0.1,0.1,0,0,0
		c0.1-0.1,0.3-0.2,0.4-0.3c0-0.1-0.1,0-0.4,0.3c-0.6-0.1-1-0.3-1.4-0.6c-0.7-0.7-1.4-0.7-2.3-0.2c-1.1,0.6-1.1,0.5-1.8-0.5
		c-0.4-0.6-0.7-1.3-1.6-1.6c-1.2-0.3-2.1-1.2-3.5-0.9c-0.7,0.1-1.6,0.2-2.3-0.1c-1.5-0.5-2.6,0-3.7,0.9c-0.6,0.5-1.2,0.9-2,0.9
		c-0.5,0-1.3,0-1.3-0.1c-0.3-0.8,0.5-0.8,1-1.1c0.1-0.1,0.2-0.3,0.2-0.4c-0.1-0.2-0.2-0.3-0.4-0.4c-1-0.3-1.9-0.1-2.8,0.3
		c-0.6,0.3-1.1,0.3-1.6-0.1c-0.8-0.7-1.5-0.6-2.2,0.2c-0.2,0.3-0.5,0.6-0.9,0.7c-1.1,0.7-2.4,0-2.6-1.2c0-0.1,0-0.2,0-0.3
		c0-0.8,0.2-1.7,0-2.5c-0.2-0.9-1.5-0.7-1.9-1.6c0-0.1-0.1-0.2-0.1-0.3c1.6,0.4,2.9,1.2,4.3,2.1l0,0c1.3,0,2.4,0.5,3.5,0.9
		c2.8,1,5.7,1.4,8.6,1.3c2.1-0.1,4.2-0.3,6.2-0.4c3.1-0.1,5.9-1,8.7-2.4c1-0.5,1.9-1.2,3.1-1.4c-0.1,0.4-0.4,0.7-0.7,0.9
		c-0.6,0.4-0.5,0.8-0.1,1.4c0.3,0.3-0.1,0.8-0.4,0.8c-0.7-0.1-1.3-0.3-2-0.3c-1.2,0-1.9,0.9-1.6,2.1c0.1,0.4,0.4,0.7,0.8,0.5
		c0.3-0.1,0.6-0.5,1-0.5c0.2,0,0.5,0.2,0.7,0.3c0.2,0.2,0.2,0.5-0.1,0.7c-0.3,0.2-0.6,0.4-0.9,0.6c0,0-0.1,0.2,0,0.3
		c0.1,0.1,0.2,0.4,0.3,0.4c2.1-0.1,4.4,0.1,5.9-1.9c0.5-0.7,1.3-1.2,2.2-1.3c2.8-0.3,5.5-1.3,8.4-1.2c0.4,0,0.8-0.1,1.1,0
		c1.7,0.6,3.3,0.1,5-0.3c1.1-0.3,2.2-0.7,3.1-1.4c0.2-0.2,0.4-0.4,0.7-0.5c0.4-0.2,0.9-0.3,1.4,0c0.6,0.4,0.2,0.8,0,1.2
		c-0.1,0.2-0.2,0.3-0.2,0.5c-0.1,0.5,0.2,0.8,0.6,0.8c0.6,0.1,1.1,0,1.7,0c2.9-0.2,5.7-0.4,8.6-0.5c0.8-0.1,1.7-0.2,2.6,0.1
		c0.3,0.1,0.7,0.2,0.8,0.1c1.2-1.2,2.3-0.4,3.6-0.1c1.1,0.3,2.3,0,3.4-0.2c0.9-0.1,2.1-1.6,2.4-2.9c0.1-0.5,0.1-1.2,0.8-1.5
		c0.4,0.4,0.7,0.8,1.2,1.2c1,0.8,1.2,1.6,0.7,2.8c-0.2,0.4-0.1,0.9-0.1,1.4c-0.4-0.1-0.6-0.4-0.8-0.7c-1.1-1.5-1.3-1.6-2.5-0.3
		c-0.7,0.8-1.5,1-2.5,1.1c-9.2,0.4-18.5,0.7-27.8,0.5c-3.7-0.1-7.4,0-11.1,0.5c-0.9,0.1-1.7,0.4-2.3,1.1c-0.2,0.2-0.3,0.5-0.3,0.7
		c0,0.3,0.4,0.4,0.6,0.3c0.6-0.1,1.1-0.2,1.7-0.2c0.6,0,1,0.8,0.8,1.3c0,0.1-0.1,0.2-0.1,0.3c-1.9,2.4-2.9,5.4-4.6,7.9
		c-1.1,1.6-1.8,3.3-2.4,5.2c-0.3,1-0.2,1.9,0.1,2.8c0.5,1.3,1.7,2.1,3.1,2c1,0,1.9-0.4,2.7-0.9c2.4-1.6,5-2.9,7.1-4.8
		c2.7-2.5,5.5-5.1,6.4-8.9c0.1-0.3,0.2-0.5,0.3-0.8c0.5-1,1.2-1.5,2.3-1.4c1.1,0,1.8,0.6,2.1,1.6c0.5,1.5,0.9,3.1,1.4,4.7
		c0.3,0.8,0.5,1.6,0.8,2.4c0.5,1.5,1.7,2.5,3.1,3.1c2.7,1.3,5.5,1.6,8.3,0.2c0.4-0.2,0.8-0.5,1.2-0.7c1.4-0.9,2-2.2,1.7-3.9
		c-0.2-1.1-0.5-2.2-0.9-3.3c-0.3-0.7-0.6-1.4-0.7-2.2c-0.2-1.5,0.5-2.9,1.9-3.5c1.4-0.6,2.8-0.3,3.9,0.9c1.1,1.2,1.7,2.7,2.2,4.3
		c0.2,0.6,0.3,1.3,0.4,2c1,5.1-0.8,9-5,11.9c-5.7,3.9-14.5,3.1-19.2-2.1c-0.8-0.9-1.4-2-2.2-3c-0.5-0.7-1.1-0.7-1.6,0
		c-3.1,4.2-7.2,7.1-11.8,9.2c-2.8,1.3-5.7,1.4-8.6,0.1c-3.4-1.5-5.3-5-4.7-8.6c0.6-4,2.4-7.4,5-10.4c1.2-1.4,2.6-2.7,3.6-4.4
		c-0.8-0.4-1.2,0.2-1.5,0.5c-3.3,3.2-6.6,6.4-9.8,9.6c-0.5,0.5-1,1.2-1.4,1.8c-0.7,1-1.5,2-2.5,2.7c-2.3,1.6-4,3.8-5.9,5.8
		c-1.7,1.7-3.3,3.4-5,5.1c-0.1-0.6,0-1.1,0.4-1.6c0.5-0.6,0.9-1.1,1.4-1.8C159.7,224.7,158.8,223.8,157.6,223.3z"/>
	<path class="st12" d="M371.2,258c-3.9-0.1-8,0.5-12.1,0.1c-0.6-0.1-1.1,0-1.7-0.1c-2.6-0.4-5.3-0.7-8-0.5c-1,0.1-1.5-0.3-1.7-1.2
		c-0.5-2.2-0.9-4.5-1.4-6.7c-0.1-0.7,0.1-1.2,0.8-1.6c3.6-2.3,6.7-5.4,9.4-8.7c1-1.2,2-1.5,3.5-1.3c4.6,0.5,9.3,1,13.9,1.5
		c0.9,0.1,1.9,0.2,2.8,0.5c2.1,0.5,4.2,0.3,6.3,0.1c1.3-0.1,2.3-0.9,3.3-1.6c0.6-0.4,1.2-0.9,1.9-1.3c0.2-0.1,0.6,0,0.6,0.3
		c0.3,1.4,0.2,2.8,0,4.3c-0.1,0.9-0.3,1.9-0.2,2.8c0.1,2.3-0.7,4.5-1.4,6.7c-0.2,0.7-0.6,1.2-1,1.7c-0.6,0.7-1.3,1.4-1.9,2.1
		c-1.6,1.8-3.6,2.6-6.1,2.6C375.9,257.6,373.7,257.9,371.2,258z"/>
	<path class="st13" d="M223.9,117.9c-0.4-1.2,0.3-1.8,1.5-2.5c1.8-0.9,3.6-1.7,5.5-2.2c2-0.5,4-1.4,5.8-2.3c3.1-1.6,6.2-2.9,9.4-4.1
		c5.1-2,10.3-4.1,15.6-5.5c0.4-0.1,0.7-0.3,1.1-0.3c1.8-0.5,2-0.3,2.8,1.4c0.5,1.1,0.8,2.3,1,3.6c0.2,1.3,0.4,2.6,0.6,4
		c0.3,2,0.3,2.1-1.6,3.1c-2.4,1.3-5,2.5-7.4,3.8c-3.4,1.8-6.7,3.6-10.1,5.4c-3.2,1.7-6.3,3.6-9.6,5c-2.8,1.2-5.6,2.5-8.3,3.8
		c-1,0.5-1.8,0.2-2.5-0.7c-0.3-0.4-0.6-1-0.9-1.5C225.3,125.3,224.2,121.8,223.9,117.9z"/>
	<path class="st13" d="M195,131.5c-0.2,1.5-0.4,2.8-0.7,4.1c-0.3,1.3-1,1.7-2.3,1.4c-3.6-0.7-7.3-1.6-10.8-2.8
		c-3.1-1.1-6.4-2-9.7-2.3c-3-0.2-5.8-1.1-8.7-1.8c-4.8-1.1-9.6-2.4-14.4-3.6c-0.5-0.1-0.9-0.3-1.3-0.5c-0.7-0.3-0.9-1-0.6-1.7
		c0.3-0.5,0.6-0.9,1-1.4c3-3.7,6.2-7.3,8.6-11.4c0.6-1,1-1.1,2.2-0.7c2.9,1,5.7,2,8.3,3.8c1.7,1.2,3.7,1.9,5.7,2.5
		c4.7,1.4,9,3.6,12.9,6.5c2.7,2.1,5.5,4.1,8.6,5.6C194.8,130.1,195.1,130.8,195,131.5z"/>
	<path class="st8" d="M361.3,216.4c0.2,1.9,0.2,3.7-0.3,5.5c-0.2,0.8-0.3,1.7-0.4,2.5c-0.1,1.2-0.6,2.2-1.3,3.1
		c-2,2.4-3.9,4.9-6,7.3c-0.7,0.9-1.7,1.5-2.5,2.3c-1.3,1.4-2.6,2.8-3.9,4.1c-0.3,0.4-0.7,0.8-1.2,0.6c-0.5-0.1-0.6-0.6-0.7-1.1
		c-0.5-3.2-1.1-6.4-1.6-9.6c-1.2-6.9-2.3-13.9-3.5-20.8c-0.2-1.2,0-2,1-2.6c1.3-0.8,2.2-2.1,3.2-3.2c0.9-0.9,1.8-1.7,2.8-2.4
		c3-2.4,8.7-1.3,11.5,1.7c1,1.1,1.3,2.6,1.6,3.9C360.4,210.6,361.1,213.5,361.3,216.4z"/>
	<path class="st14" d="M250.8,61.7c-0.7,0.9-1.6,1.3-2.7,1.1c-0.5-0.1-0.9-0.1-1.4-0.1c-4.9,0.1-9.8,0.1-14.8,0.2
		c-4.7,0-9.4-0.6-14.2-0.2c-4.5,0.4-4.6,0-4-4.5c0.3-2.1,1.2-3,3.3-3.1c10.5-0.4,21.1-0.6,31.6-0.5c2.6,0,3.2,1.1,2.9,3.3
		C251.4,59.2,251.7,60.6,250.8,61.7z"/>
	<path class="st15" d="M300.8,74.1c-0.3,0.7-0.6,1.4-1,2c-1.2,1.7-2.7,2.2-4.7,1.3c-1.4-0.7-2.8-0.7-4,0.2c-1.5,1-3.2,1.1-4.6,0.6
		c-3.2-1.1-6.3-0.9-9.6-0.8c-2.3,0.1-4.6,0.3-6.9,0.4c-1,0.1-1.9,0.1-2.8-0.5c-0.4-0.2-0.9-0.4-1.3-0.3c-2.8,0.2-5.5-0.5-8.3-0.1
		c-1.8,0.2-2.1-0.2-2.7-1.8c-0.7-2.2-0.6-2.1-0.2-4.4c0.5-2.7,1.2-5.4,1.1-8.1c-0.1-1.9,1.1-3.2,2-4.6c0.2-0.3,0.6-0.5,1-0.5
		c1.4-0.1,2.9-0.3,4.3-0.1c1.2,0.2,2.5,0.2,3.7,0.1c2.7-0.2,5.3-0.3,8-0.5c1.4-0.1,2.9-0.1,4.2-0.7c0.5-0.2,1.1-0.2,1.7-0.2
		c2.5-0.2,5-0.3,7.4-0.5c0.7,0,1.4-0.1,2,0.1c1.1,0.3,2.3,0.2,3.4,0.1c1.7-0.1,3.4-0.2,5.1-0.3c2.2-0.2,3.8,0.8,5.1,2.5
		c0.5,0.6,0.8,1.3,0.1,2.1c-0.5,0.6-0.4,1.2-0.4,1.9c0.1,2.2,0.3,4.3-0.1,6.5c-0.2,1.1,0.1,2.3,0.1,3.4c0,1.7-0.2,2-2.1,2.3
		C301.2,74.1,301,74.1,300.8,74.1c-0.5-2,0.2-4,0.6-5.9c0.4-2.7,0.2-5.3,0-8c-0.1-1.6-1-2.3-2.6-2.3c-12.5-0.2-24.9,1.1-37.4,1.8
		c-1.7,0.1-2.7,0.8-2.8,2.6c-0.1,3.1-0.8,6-1.4,9c-0.5,2.7,0.1,3.6,2.8,3.8c2.8,0.2,5.7,0.5,8.6,0.2c3.8-0.4,7.7-0.4,11.4,0.1
		c6.4,0.8,12.5,0.2,18.7-1.5C299.4,73.7,300.1,73.5,300.8,74.1z"/>
	<path class="st16" d="M138.4,143.7c0.1-2,0.4-3.4,0.9-4.7c1-2.7,2-5.4,2.7-8.1c0.2-0.8,0.7-1,1.2-0.6c2.5,1.8,5.4,2.2,8.3,2.8
		c0.7,0.1,1.7-0.2,1.8,0.8c0.1,0.8-0.8,0.9-1.4,1.2c-2,1-4,1.8-5.9,2.9c-1.9,1-3.7,2.4-5.3,3.8C140.1,142.4,139.4,142.9,138.4,143.7
		z"/>
	<path class="st17" d="M250.8,61.7c-0.2-1.2-0.3-2.5,0-3.7c0.1-0.5,0.1-0.9,0.1-1.4c0-1.3-0.3-1.6-1.7-1.6c-1.9-0.1-3.8,0-5.7,0.1
		c-5.2,0.2-10.5-0.4-15.7,0.1c-2.7,0.3-5.5,0.5-8.3,0.2c-1-0.1-2.1,0-3.1,0.1c-1.1,0.1-1.7,0.8-2,1.7c-0.2,0.6-0.3,1.3-0.3,2
		c-0.4,3.5,0,3.4,2.8,3.1c3.8-0.4,7.6-0.5,11.4,0.3c1.2,0.2,2.5-0.3,3.6,0.5c-3.1,0.2-6.2,0.6-9.4,0.2c-1.7-0.2-3.4,0.1-5.1,0.2
		c-1,0-1.9,0.2-2.8,0.1c-1,0-1.5-0.6-1.7-1.6c-0.1-0.4-0.1-0.8-0.1-1.1c0.1-1.2,0.2-2.5,0.5-3.7c0.3-1.5,0.8-2.3,2.7-2.4
		c2.3-0.1,4.6-0.2,6.8-0.4c2.5-0.1,4.9-0.3,7.4-0.4c1.5-0.1,3-0.3,4.5,0.1c0.5,0.1,1.1,0,1.7,0c1.8-0.1,3.6-0.2,5.4,0.1
		c1.2,0.2,2.5,0,3.7-0.1c1.7-0.2,3.4,0.3,5.1,0.4c0.7,0,1.2,0.5,1.3,1.3c0.1,1.5,0.3,3,0.3,4.6C252.3,61.2,251.7,61.7,250.8,61.7z"
		/>
	<path class="st18" d="M310.5,278.4c0.1-0.2,0.2-0.4,0.3-0.5c2.7-1.4,5.5-2.7,8.4-3.6c0.3-0.1,0.6,0,0.8,0c-0.2,0.2-0.4,0.5-0.6,0.6
		c-2.7,1.2-5.4,2.3-8.1,3.4C311.1,278.4,310.8,278.4,310.5,278.4z"/>
	<path class="st19" d="M120.8,203.3c-0.6-0.3-1-0.2-1.1,0.6c0,0.2-0.3,0.4-0.5,0.6c-0.2-0.7-0.2-1.5,0.1-2.1
		c0.1-0.3,0.4-0.6,0.8-0.6c0.5,0,0.6,0.4,0.7,0.7C120.9,202.8,120.8,203.1,120.8,203.3z"/>
	<path class="st19" d="M119.2,204.5c0.3,1.3,0,2.5-0.9,3.5C118.2,206.8,118.4,205.6,119.2,204.5z"/>
	<path class="st19" d="M121.6,205.5c-0.7-0.4-0.8-1-0.6-1.7C121.6,204.2,121.7,204.8,121.6,205.5z"/>
	<path class="st20" d="M71.3,91.1c0.1,1.8,0.2,3.4-0.5,5c-0.7,1.4-1.4,2.7-2.9,3.3c-0.3,0.1-0.6,0.4-0.9,0.6c-0.6,0.5-0.9,1.2-0.7,2
		c0.2,1,0.9,1.4,1.7,1.7c0.3,0.1,0.8,0.1,1.1,0.1c2.1-0.4,3.8,0.6,5.1,2.1c1.5,1.8,3.2,3.6,3.9,5.9c0.5,1.6,0.8,3.3,1.2,5
		c0.1,0.6,0,1.2,0.2,1.7c0.9,2.1,0.2,4.1,0,6.2c-0.1,0.6-0.3,1.3-0.7,1.8c-1.3,1.6-2.5,3.3-4.6,4.2c-1,0.4-1.8,1.1-2.7,1.6
		c-5.1,3.2-10.5,4.5-16.6,3.2c-3.2-0.7-6-2-8.4-3.9c-2.8-2.2-4.7-5.1-4.9-9c-0.2-3.3,0.6-6.4,1.6-9.5c0.7-2.3,2.6-3.9,4.4-5.5
		c1-0.8,2.3-0.9,3.6-0.7c1,0.2,2.1,0.5,3.1,0.5c1.6,0.1,2.7-1.1,2.5-2.7c-0.1-0.6-0.3-1.1-0.9-1.4c-0.7-0.4-1.4-0.6-2.1-0.7
		c-3.3-0.4-6-2.1-8.5-4.3c-2.4-2.2-2.9-4.9-2.5-7.8c0.3-2.4,1.8-4.1,4.1-5.1c2.2-1,4.3-2.2,6.7-2.3c0.4,0,0.7-0.2,1.1-0.4
		c0.9-0.5,1.3-1.6,0.7-2.4c-1-1.2-1.2-2.8-1.9-4.1c-0.4-0.9-0.5-1.8-0.6-2.8c-0.1-0.6-0.1-1.2,0.5-1.5c0.7-0.4,2-0.3,2.4,0.3
		c1.2,1.7,2.7,3.2,3.2,5.3c0.7,2.7,2.3,4.4,5.2,5c2.6,0.5,4.7,1.9,6.2,4.2C71.2,88.1,71.1,89.7,71.3,91.1z"/>
	<path class="st21" d="M309.2,194c-0.1,2.6-1,5-2,7.4c-1.3,2.9-3.4,5.2-5.7,7.4c-1.6,1.5-3.8,2.1-6.1,2.1c-0.9,0-1.7-0.4-2.1-1.3
		c-0.5-1-0.3-2.1,0.5-2.9c0.6-0.6,1.3-1.1,2.1-1.5c0.9-0.4,1.7-0.8,2.5-1.4c1.6-1.2,3-2.6,3.5-4.7c0.2-1,0.7-2,1.1-2.9
		c0.6-1.3,0.6-2.6,0.1-3.9c-0.4-1.1-0.9-2.1-1.4-3.1c-0.4-0.9-0.8-1.7-1.1-2.6c-0.3-0.9-0.2-1.7,0.6-2.4c0.6-0.6,1.6-0.6,2.7,0.1
		c0.6,0.4,1.2,0.9,1.7,1.5C307.6,188.2,308.7,191,309.2,194z"/>
	<path class="st11" d="M247.6,159.6c0.3,1.5-0.2,3-0.8,4.5c-0.5,1.1-1.2,2.2-2.3,2.9c-1.5,0.9-3.1,1.2-4.9,0.6
		c-3.4-1.1-6.4-5-6.3-8.7c0-1.8,0.8-3.3,1.9-4.7c1-1.3,2.5-2.1,4.1-2.6c1.4-0.4,2.9-0.2,4.1,0.6
		C246.2,153.8,247.7,156.1,247.6,159.6z"/>
	<path class="st22" d="M155.9,166.3c0.4,1.8-0.2,3.4-0.9,5c-0.6,1.6-2,2.5-3.7,2.9c-1.3,0.3-2.6,0.3-4,0.1c-1.8-0.4-3.1-1.3-4-2.9
		c-1-2-1.8-4-1.6-6.3c0.1-1,0.4-1.9,1.2-2.5c1-0.8,2.1-1.7,3.2-2.4c2.9-1.8,6.8-0.8,8.4,2.1C155.3,163.6,156.1,164.8,155.9,166.3z"
		/>
	<path class="st0" d="M159.4,222.1c0.5-1.3,1.7-1.8,2.6-2.5c0.1-0.1,0.5,0,0.5,0c0.1,0.3,0.2,0.7,0,0.8
		C161.6,221.2,160.8,222.2,159.4,222.1L159.4,222.1z"/>
	<path class="st0" d="M179.7,204.3c0.1,0.1,0.5,0.3,0.5,0.4c0.1,0.6-0.4,0.5-0.7,0.5c-0.1,0-0.6,0.4-0.5-0.2
		C179,204.7,179.1,204.4,179.7,204.3z"/>
	<path class="st0" d="M152.2,198.3c0,0.2,0.1,0.4,0.1,0.5c0.1,0.3,0.1,0.6-0.2,0.6c-0.2,0-0.6,0-0.7-0.2c-0.3-0.4,0-0.6,0.4-0.8
		C151.9,198.4,152.1,198.4,152.2,198.3C152.3,198.3,152.2,198.3,152.2,198.3z"/>
	<path class="st0" d="M159.4,222.1c0,0.1-0.1,0.2-0.1,0.2C159.1,222.3,159.1,222.2,159.4,222.1C159.4,222.1,159.4,222.1,159.4,222.1
		z"/>
	<path class="st23" d="M300.8,74.1c-0.3,0-0.6,0-0.8,0.1c-3.4,1.6-7,1.6-10.6,2.3c-2.6,0.5-5.1,0.2-7.7-0.1c-3-0.3-6.1-0.5-9.1-0.4
		c-4.1,0.2-8.2,0.1-12.3,0c-0.7,0-1.3-0.1-2-0.2c-2.2-0.3-2.6-0.8-2.2-3c0.2-1.1,0.4-2.3,0.7-3.4c0.6-2.3,0.9-4.7,0.9-7.1
		c0-0.2,0-0.4,0-0.6c0.4-2.9,0.4-2.8,3.2-2.9c5.4-0.1,10.7-0.7,16-1c4.1-0.3,8.2-0.5,12.3-0.7c3.6-0.2,7.2,0.1,10.9-0.3
		c1.4-0.2,1.9,0.3,2.1,1.7c0.5,3.4,0.8,6.8,0.1,10.2C301.8,70.6,301.9,72.5,300.8,74.1C300.8,74.1,300.8,74.1,300.8,74.1z"/>
</g>
</svg>
